<svg xmlns="http://www.w3.org/2000/svg" id="uuid-3a11aeb9-b134-41df-a264-0d27841f6703" data-name="Layer 1" viewBox="0 0 1150.1218 555.2312"><g><path d="M691.5748,177.9153c.5194,.7617,.9337,1.6282,1.5737,2.2697,15.411,15.4451,30.8607,30.8516,46.2502,46.318,1.2825,1.2889,2.5535,1.8391,4.3731,1.7971,5.0643-.1169,10.133-.0406,15.4772-.0406v-9.6338c6.3903,3.1789,12.3955,6.1663,18.9145,9.4092,0-1.2954,0-2.2305,0-3.1657,.0002-17.4843-.0112-34.9686,.0043-52.4529,.0123-13.9726,9.1619-23.0535,23.2041-23.0543,51.5599-.0027,103.1197-.0017,154.6796-.0008,14.4233,.0003,23.598,9.0589,23.6466,23.4936,.0585,17.4008,.0139,34.802,.014,52.2031,0,.977,0,1.9541,0,3.0647h16.8134v-9.4606c5.7355,2.8425,11.1241,5.5131,16.8181,8.335,1.9568-14.694,9.1643-25.6256,22.3482-32.2444,8.6041-4.3196,17.7015-5.0665,26.9894-2.7794,18.1597,4.4717,31.0475,22.4087,29.8222,40.4725-1.3328,19.6471-16.574,35.5124-35.9815,37.2744-21.1257,1.918-40.8613-13.3604-43.2325-36.0642-5.4858,2.7206-10.8728,5.3923-16.5847,8.2251v-9.3013h-16.9927c0,.8843,0,1.8398,0,2.7952,0,17.401-.0141,34.8021,.0059,52.2031,.0102,8.8853-3.0899,16.2537-11.0805,20.6319-3.0901,1.693-6.8997,2.9071-10.3863,2.919-52.892,.1817-105.7848,.1611-158.6774,.1017-11.7788-.0132-21.3019-9.6251-21.3454-21.3173-.0672-18.0638-.0477-36.128-.0648-54.192-.0008-.8844,0-1.7688,0-3.1225-6.4517,3.2094-12.5022,6.2192-18.8726,9.3881v-9.6063c-5.9079,0-11.6285-.0653-17.344,.0737-.8136,.0198-1.7105,.9228-2.388,1.5982-14.8631,14.8153-29.6864,29.6705-44.5694,44.4657-1.2314,1.2241-1.6768,2.4497-1.6755,4.1567,.0403,52.9524,.0329,105.9049,.0329,158.8573,0,1.7397,0,3.4794,0,5.4025h136.8285v-9.424c5.7801,2.863,11.2184,5.5567,16.9347,8.388,1.8301-13.954,8.4785-24.6326,20.7545-31.4324,8.739-4.8406,18.0835-5.9523,27.8124-3.7907,18.9029,4.1998,32.1367,22.3905,30.4784,41.8501-1.6575,19.4494-17.6824,34.9395-36.805,36.1682-19.3858,1.2457-39.3427-12.2672-42.2411-36.138-5.5186,2.735-10.9498,5.4266-16.7171,8.2848v-9.4609h-141.1734v-3.6624c0-54.6176-.01-109.2353,.0388-163.8528,.0018-2.0574-.5194-3.5327-2.0197-5.0205-15.0192-14.8942-29.9593-29.8683-44.9061-44.8353-.5837-.5845-1.0115-1.3246-1.5223-2.006-6.788,3.3782-13.1687,6.5537-19.8491,9.8783v-9.2935h-17.0916v2.901c0,17.5676,.0092,35.1351-.003,52.7027-.0095,13.8081-9.2338,23.0576-22.9916,23.0677-12.7442,.0094-25.4884,.0022-38.2326,.0023-.8995,0-1.7991,0-2.9045,0-.7698,9.2828-4.2079,17.224-10.6815,23.7273-6.4807,6.5103-14.4069,9.9794-23.6588,10.799v13.7765h9.3786c-2.8874,5.82-5.5578,11.2025-8.3534,16.8373,13.432,1.6399,23.7932,7.9454,30.7248,19.4149,5.2649,8.7116,6.6385,18.1765,4.7258,28.1361-3.6005,18.7483-22.0177,32.9379-40.8558,31.4935-21.0497-1.6139-36.7345-17.5242-37.4566-38.3905-.679-19.6214,13.5852-38.0682,36.2739-40.6518-2.7347-5.5016-5.415-10.8938-8.2882-16.674h9.2227v-13.9283c-9.0152-.8181-16.9628-4.2055-23.4581-10.6806-6.5154-6.4952-9.9929-14.4133-10.8156-23.8597-.9689,0-1.8447,0-2.7204,0-12.9108-.0001-25.8216,.0123-38.7324-.0038-13.2192-.0165-22.5414-9.1713-22.6033-22.3784-.0823-17.5672-.0237-35.135-.0255-52.7026-.0001-.9968,0-1.9936,0-3.506-6.3,3.099-12.3355,6.068-18.7138,9.2055v-9.3146h-19.2c-.0424,.8846-.1276,1.8374-.128,2.7902-.0081,17.5676,.0005,35.1351-.0081,52.7027-.0068,13.9526-9.2181,23.2036-23.1112,23.2049-51.8098,.0047-103.6195,.0054-155.4293-.0006-13.4378-.0016-22.6132-8.6443-22.8082-22.0677-.2575-17.7291-.1071-35.464-.1318-53.1965-.0013-.9703-.0002-1.9406-.0002-3.3789-6.4001,3.1782-12.3893,6.1523-18.7502,9.311v-9.4163h-11.4012c-1.178,12.6018-6.8701,22.618-17.5407,29.5305-8.2644,5.3538-17.375,6.8503-27.0407,5.2189-18.6785-3.1525-31.8423-20.531-30.5205-40.2953,1.2095-18.0849,17.2518-33.3231,35.4407-34.2095,19.103-.931,37.7204,12.9918,39.6634,35.3267h11.2448v-9.4543c6.3738,3.1681,12.415,6.1709,18.9043,9.3964,0-1.3878,0-2.3478,0-3.3077,.0002-17.401-.0119-34.8021,.0044-52.2031,.0131-14.0109,9.1489-23.1497,23.1204-23.1506,51.8098-.0033,103.6195-.0041,155.4293,.0006,13.5628,.0012,22.911,9.3349,22.9244,22.9065,.0173,17.5675,.0044,35.1351,.0045,52.7027,0,.9852,0,1.9704,0,3.1209h19.0796v-9.4663c6.4763,3.2065,12.5142,6.1959,18.9682,9.3914,0-1.2417-.0004-2.1125,0-2.9834,.0078-18.0668-.0328-36.1338,.041-54.2003,.0483-11.8398,9.6244-21.4391,21.5086-21.4501,52.7259-.0487,105.452-.0447,158.178-.0046,12.0892,.0092,21.6397,9.6114,21.7021,21.8264,.0919,17.9834,.0251,35.9676,.0259,53.9514,0,.9088,0,1.8175,0,2.914h16.8882v-9.3419c1.0965,.4993,1.9055,.838,2.6883,1.229,4.8339,2.4144,9.7138,4.7443,14.4663,7.3102,1.9108,1.0317,3.0445,.9277,4.644-.6864,15.3566-15.4979,30.8208-30.8892,46.2366-46.3286,.6409-.6419,1.1082-1.457,1.6565-2.1914,.3755-.049,.7509-.0979,1.1264-.1469Zm-428.0513,129.2331c25.898,0,51.7959,.0079,77.6939-.0037,11.4855-.0051,18.8754-7.3995,18.8783-18.8969,.0099-38.6217,.01-77.2434,0-115.8651-.003-11.5045-7.3804-18.8939-18.8799-18.8962-51.7127-.0104-103.4254-.0092-155.138-.0011-11.6419,.0018-19.0261,7.4036-19.0266,19.0233-.0014,38.4552-.0009,76.9104-.0003,115.3656,.0002,11.9706,7.295,19.2702,19.2783,19.2726,25.7314,.0052,51.4628,.0016,77.1943,.0014ZM878.9898,153.4821c-25.9815,0-51.9631-.0151-77.9446,.007-11.2901,.0096-18.7399,7.514-18.7418,18.8214-.0064,38.6217-.0052,77.2433-.0009,115.865,.0013,11.5885,7.4259,18.9695,19.095,18.9707,51.63,.0054,103.26,.0049,154.89,.0005,11.6967-.001,19.0798-7.3207,19.0829-18.9482,.0105-38.6221,.0085-77.2442-.012-115.8663-.0009-1.656-.0392-3.3545-.3913-4.9607-1.846-8.4224-8.9177-13.8699-18.0326-13.8794-25.9816-.027-51.9631-.0095-77.9447-.01Zm-412.5791,153.6666c.1749-1.127,.3542-2.0952,.4722-3.0708,2.1554-17.821,18.1567-31.5842,36.5503-31.4304,18.3819,.1538,34.1296,14.1499,35.952,32.0591,.1909,1.8762,.7389,2.5022,2.6985,2.4884,12.8268-.0904,25.6546-.0403,38.4821-.0482,11.641-.0072,19.1172-7.3969,19.1223-18.977,.0169-38.5487,.0145-77.0973-.0181-115.6459-.0016-1.8996-.1361-3.8534-.5875-5.6889-2.0164-8.1999-9.0778-13.3457-18.2042-13.348-44.313-.0111-88.6261-.0063-132.9392-.0043-7.7463,.0003-15.4955-.1185-23.2381,.0534-10.9528,.2431-18.1679,7.7132-18.1719,18.628-.0145,38.7949-.0154,77.5899,.0239,116.3848,.0019,1.8936,.2151,3.8449,.7026,5.6699,2.0183,7.555,8.7381,12.7645,16.7811,12.8519,11.7427,.1277,23.4874,.062,35.2313,.0776,2.3229,.0031,4.6457,.0004,7.1428,.0004Zm224.5437-31.2404c15.1805-15.1743,30.5241-30.5116,45.6242-45.6054-15.1452-15.1357-30.4845-30.4654-45.5928-45.5641-15.1548,15.145-30.4991,30.4794-45.6263,45.5968,15.1735,15.1661,30.5218,30.5069,45.5949,45.5727ZM128.5331,230.2993c-.0076-18.3198-15.0648-33.3883-33.3936-33.4185-18.3252-.0302-33.4389,15.001-33.4986,33.3158-.0602,18.4392,15.0708,33.5819,33.5201,33.546,18.3426-.0356,33.3797-15.1049,33.3721-33.4433Zm758.0034,250.291c17.4446,.0152,31.5507-13.9051,31.6391-31.2225,.0885-17.3295-14.2477-31.6891-31.5784-31.63-17.2095,.0587-31.2909,14.1341-31.333,31.3196-.0427,17.4134,13.9451,31.5178,31.2723,31.5329Zm197.7861-250.2008c.0461-17.2477-13.9436-31.4304-31.0861-31.5148-17.533-.0863-31.6706,13.8934-31.7317,31.3772-.0605,17.3187,14.0241,31.4725,31.345,31.4993,17.3581,.0268,31.4263-13.9918,31.4728-31.3617ZM503.0076,447.3297c17.3657,.0869,31.4513-13.9097,31.506-31.3066,.0547-17.4158-13.8823-31.4376-31.2991-31.4893-17.398-.0517-31.4411,13.8756-31.5432,31.2831-.1014,17.2989,13.9463,31.4258,31.3362,31.5128Zm-34.2683-138.257c-.0945,18.9014,15.2091,34.3945,34.1275,34.5503,18.3076,.1507,34.0162-15.1993,34.6568-32.8064,.6897-18.9577-14.2811-35.8776-34.1633-36.0049-19.1007-.1223-34.5256,15.1866-34.621,34.261Z"></path><path d="M263.5235,307.1485c-25.7314,0-51.4628,.0036-77.1943-.0015-11.9834-.0024-19.2782-7.302-19.2783-19.2726-.0006-38.4552-.0011-76.9104,.0003-115.3656,.0004-11.6197,7.3847-19.0215,19.0266-19.0233,51.7127-.0081,103.4254-.0093,155.138,.0011,11.4996,.0023,18.877,7.3917,18.8799,18.8962,.0101,38.6217,.01,77.2434,0,115.8651-.003,11.4974-7.3929,18.8918-18.8783,18.8969-25.898,.0116-51.796,.0037-77.6939,.0038Zm-46.3677-119.2806v-24.7504c-.978,.6057-1.6694,1.0095-2.3361,1.4508-5.192,3.4367-10.4304,6.8075-15.5353,10.3691-1.4385,1.0037-2.3607,.9081-3.7167-.0264-5.1328-3.5374-10.3461-6.9582-15.5357-10.4131-.7122-.4741-1.4603-.8942-2.317-1.4155v24.7855h39.4407Zm-38.5298-26.4979c.8376,.6245,1.2545,.9637,1.6987,1.2622,4.2633,2.8643,8.529,5.7249,12.7983,8.5801q4.2997,2.8755,8.6361-.0143c4.7211-3.1469,9.4398-6.2975,14.7313-9.828h-37.8645Z" style="fill: #fff;"></path><path d="M878.9898,153.4823c25.9816,.0002,51.9631-.0173,77.9447,.0097,9.115,.0095,16.1867,5.457,18.0326,13.8794,.352,1.6062,.3904,3.3047,.3913,4.9607,.0206,38.6221,.0225,77.2442,.012,115.8663-.0032,11.6275-7.3862,18.9472-19.0829,18.9482-51.63,.0045-103.26,.0049-154.89-.0005-11.6691-.0012-19.0937-7.3822-19.095-18.9707-.0043-38.6217-.0056-77.2433,.0009-115.865,.0019-11.3074,7.4517-18.8118,18.7418-18.8214,25.9815-.0221,51.9631-.007,77.9446-.0068Zm-92.5785,22.2655c4.8165,.7053,5.1097,1.4365,2.3457,5.6502,1.4537,1.4361,2.9108,2.8756,4.4423,4.3886,1.3647-1.4357,2.7036-3.1992,4.948-1.1784,.5521,5.4599,.5776,5.5079,4.9073,9.0264,1.4267-1.3993,2.806-3.3947,5.1463-.906,.0469,.8213,.107,1.875,.1802,3.1577,1.5238,0,2.9197,.0141,4.3152-.0062,.6469-.0094,1.2928-.0857,1.9119-.1297,.6004-4.8108,1.5696-5.2277,5.5278-2.4193,.24-.1627,.5317-.316,.7696-.5292,1.2955-1.1613,2.5778-2.3374,3.3003-2.9948-.5768-1.973-1.5413-3.5011-1.1846-4.601,.2958-.9117,2.149-1.3185,3.5614-2.084v-5.7611c-4.5228-.3126-4.9632-1.3776-2.5561-5.1048-1.4706-1.4996-2.8966-2.9538-4.3957-4.4825-.6754,.6116-1.4044,1.2718-2.228,2.0176-.8796-.3932-1.7537-.7839-2.7343-1.2222,.7745-4.2572-1.8097-6.5467-4.1934-8.3463-1.6603,.4908-2.8849,1.2097-4.0493,1.1226-2.4171-.1807-1.2065-2.4444-1.7542-3.7877h-5.6707c-.7665,1.5233-1.0823,2.9353-1.9585,3.7288-1.8251,1.6527-2.583-.8775-3.8091-1.3435-1.5831,1.4811-3.1139,2.9134-4.7336,4.4287,1.7595,1.469,2.9662,2.8879,1.0574,4.9173-.9602,.0483-2.0111,.1012-3.1457,.1583v6.3005Z" style="fill: #fff;"></path><path d="M466.4107,307.1487c-2.4972,0-4.82,.0026-7.1428-.0004-11.7439-.0155-23.4886,.0501-35.2313-.0776-8.043-.0874-14.7628-5.2969-16.7811-12.8519-.4875-1.825-.7007-3.7763-.7026-5.6699-.0393-38.7949-.0384-77.5899-.0239-116.3848,.0041-10.9148,7.2191-18.3849,18.1719-18.628,7.7426-.1718,15.4918-.053,23.2381-.0534,44.313-.002,88.6261-.0068,132.9392,.0043,9.1264,.0023,16.1878,5.1481,18.2042,13.348,.4514,1.8355,.5859,3.7893,.5875,5.6889,.0325,38.5486,.035,77.0973,.0181,115.6459-.0051,11.5801-7.4813,18.9697-19.1223,18.977-12.8275,.0079-25.6552-.0421-38.4821,.0482-1.9596,.0138-2.5076-.6122-2.6985-2.4884-1.8224-17.9092-17.5701-31.9054-35.952-32.0591-18.3935-.1539-34.3948,13.6094-36.5503,31.4304-.118,.9756-.2973,1.9439-.4722,3.0708Zm-50.4081-117.3835h43.3103v-29.3838h-43.3103v29.3838Z" style="fill: #fff;"></path><path d="M690.9545,275.9083c-15.0731-15.0658-30.4214-30.4066-45.5949-45.5727,15.1272-15.1175,30.4715-30.4518,45.6263-45.5968,15.1082,15.0988,30.4475,30.4284,45.5928,45.5641-15.1001,15.0939-30.4437,30.4311-45.6242,45.6054Zm-19.7936-66.4529c.4077,.6947,.539,.9828,.7264,1.2281,4.3906,5.7489,8.7187,11.5477,13.2285,17.2018,1.1959,1.4993,1.1256,2.4485-.0587,3.7842-1.3756,1.5514-2.5683,3.2658-3.8283,4.9186-3.298,4.326-6.5894,8.6571-10.2066,13.4109,2.7972,0,5.0285-.0932,7.2478,.0304,1.6816,.0937,2.7446-.5081,3.7422-1.8707,2.9363-4.0109,6.0289-7.9075,9.2522-12.0985,3.2256,4.1918,6.2912,8.2005,9.393,12.181,.4939,.6338,1.1226,1.592,1.7365,1.6298,2.8359,.1747,5.6886,.0771,8.9637,.0771-.595-.8812-.8433-1.2922-1.1331-1.6716-4.3405-5.6818-8.6559-11.3833-13.0569-17.0179-.8718-1.1162-.9214-1.834-.018-2.986,4.259-5.43,8.414-10.9414,12.5939-16.4332,.507-.6662,.9398-1.3888,1.6096-2.3874-2.3631,0-4.2106,.1611-6.0178-.0396-2.418-.2686-3.9521,.5956-5.353,2.5993-2.6974,3.8585-5.6987,7.5048-8.7323,11.4444-3.2497-4.26-6.2749-8.3081-9.4129-12.2669-.601-.7582-1.6098-1.5787-2.4928-1.6556-2.548-.2217-5.1278-.0783-8.1835-.0783Z" style="fill: #fff;"></path><path d="M128.5331,230.2993c.0076,18.3384-15.0296,33.4077-33.3721,33.4433-18.4493,.0358-33.5803-15.1069-33.5201-33.546,.0598-18.3148,15.1735-33.346,33.4986-33.3158,18.3288,.0302,33.3861,15.0987,33.3936,33.4185Z" style="fill: #fff;"></path><path d="M886.5365,480.5904c-17.3272-.0151-31.315-14.1195-31.2723-31.5329,.0422-17.1855,14.1235-31.2609,31.333-31.3196,17.3307-.0591,31.6669,14.3004,31.5784,31.63-.0884,17.3174-14.1945,31.2377-31.6391,31.2225Z" style="fill: #fff;"></path><path d="M1084.3226,230.3895c-.0465,17.3699-14.1147,31.3885-31.4728,31.3617-17.321-.0268-31.4055-14.1806-31.345-31.4993,.0611-17.4838,14.1987-31.4635,31.7317-31.3772,17.1425,.0844,31.1322,14.267,31.0861,31.5148Z" style="fill: #fff;"></path><path d="M503.0076,447.3297c-17.3899-.087-31.4376-14.2139-31.3362-31.5128,.102-17.4075,14.1451-31.3348,31.5432-31.2831,17.4168,.0517,31.3538,14.0735,31.2991,31.4893-.0546,17.3969-14.1403,31.3935-31.506,31.3066Zm-6.5054-32.8697c5.2798,6.1475,10.3437,12.0435,15.646,18.2172,3.3375-12.9344,6.5598-25.422,9.7583-37.8177-1.6478-1.4281-2.2798-.4918-2.9189,.7905-3.2185,6.4574-6.477,12.8948-9.872,19.6381-4.8728-6.3658-9.5811-12.5167-14.5584-19.0191-4.9145,12.5013-9.6443,24.5325-14.374,36.5636,.2996,.2019,.5992,.4039,.8988,.6058,1.0997-1.011,2.3642-1.8934,3.2706-3.055,4.0317-5.1666,7.9609-10.4131,12.1495-15.9233Z" style="fill: #fff;"></path><path d="M468.7394,309.0728c.0954-19.0745,15.5203-34.3834,34.621-34.261,19.8822,.1273,34.853,17.0472,34.1633,36.0049-.6405,17.6071-16.3491,32.9572-34.6568,32.8064-18.9184-.1558-34.222-15.649-34.1275-34.5503Zm34.2452,30.7583c16.9244,.0761,30.7579-13.5724,30.8583-30.4456,.1008-16.9598-13.7448-30.8592-30.7377-30.8571-16.8169,.002-30.5856,13.6332-30.677,30.3707-.0934,17.0971,13.4978,30.8554,30.5564,30.9321Z" style="fill: #fff;"></path><path d="M217.1558,187.8679h-39.4407v-24.7855c.8567,.5213,1.6048,.9413,2.317,1.4155,5.1896,3.4549,10.4028,6.8757,15.5357,10.4131,1.356,.9345,2.2781,1.0301,3.7167,.0264,5.1049-3.5617,10.3433-6.9324,15.5353-10.3691,.6666-.4413,1.3581-.845,2.3361-1.4508v24.7504Z"></path><path d="M178.626,161.37h37.8645c-5.2915,3.5305-10.0102,6.6811-14.7313,9.828q-4.3331,2.8883-8.6361,.0143c-4.2693-2.8552-8.5351-5.7159-12.7983-8.5801-.4442-.2985-.8611-.6376-1.6987-1.2622Z"></path><path d="M786.4113,175.7478v-6.3005c1.1346-.0571,2.1856-.11,3.1457-.1583,1.9088-2.0294,.7021-3.4484-1.0574-4.9173,1.6196-1.5153,3.1505-2.9476,4.7336-4.4287,1.2261,.4661,1.984,2.9962,3.8091,1.3435,.8763-.7935,1.192-2.2055,1.9585-3.7288h5.6707c.5477,1.3434-.6629,3.6071,1.7542,3.7877,1.1644,.087,2.3891-.6318,4.0493-1.1226,2.3838,1.7996,4.9679,4.0892,4.1934,8.3463,.9805,.4383,1.8547,.829,2.7343,1.2222,.8236-.7458,1.5526-1.406,2.228-2.0176,1.4991,1.5287,2.9251,2.9829,4.3957,4.4825-2.4071,3.7273-1.9666,4.7923,2.5561,5.1048v5.7611c-1.4124,.7655-3.2656,1.1723-3.5614,2.084-.3568,1.0998,.6077,2.628,1.1846,4.601-.7224,.6574-2.0047,1.8335-3.3003,2.9948-.2379,.2132-.5296,.3665-.7696,.5292-3.9583-2.8085-4.9275-2.3916-5.5278,2.4193-.6191,.044-1.265,.1203-1.9119,.1297-1.3955,.0203-2.7914,.0062-4.3152,.0062-.0732-1.2828-.1334-2.3365-.1802-3.1577-2.3403-2.4887-3.7196-.4933-5.1463,.906-4.3296-3.5185-4.3551-3.5664-4.9073-9.0264-2.2444-2.0209-3.5833-.2573-4.948,1.1784-1.5315-1.513-2.9886-2.9525-4.4423-4.3886,2.764-4.2136,2.4708-4.9449-2.3457-5.6502Zm34.9844-3.6963c-.59-.4779-1.0724-.8686-1.5259-1.2358q-1.963,1.6605-4.1157,.6792c-.4533-.2055-.9188-.4799-1.3955-.5193-1.3238-.1093-1.8796-.7018-1.8512-2.0766,.0367-1.7783-1.0117-1.4825-2.1918-1.0095,.7058,4.3779-3.7584,2.7559-4.9993,4.9061-.9149-.7965-1.5937-1.3875-2.2546-1.9629-2.9389,1.5518,.3749,2.4403,.2703,3.7567-.1171,.2174-.2415,.5282-.4327,.7904-1.1627,1.5938-.6759,4.7549-4.0612,4.3027-.0975-.013-.547,.9286-.4052,1.2108,.1959,.3903,.8213,.8396,1.2218,.8039,1.4966-.1335,2.0702,.5554,2.3107,1.9243,.1248,.7106,.7585,1.3372,.8607,2.0452,.1078,.7467,.0891,1.6897-.285,2.292-.8615,1.3866-.9626,1.3238,.6893,2.3086,.6911-.5578,1.3821-1.1155,2.0197-1.6301,1.0603,.4907,1.9235,1.0496,2.868,1.2907,1.4949,.3815,2.6163,.8273,2.4151,2.7508-.0347,.3318,1.1135,.7872,2.0099,1.3805,.13-1.6814,.1995-2.5804,.2696-3.4875,.9479-.3035,1.8233-.5263,2.6512-.865,.83-.3396,1.6127-.7947,2.4167-1.1994,.7687,.6678,1.4498,1.2595,2.397,2.0822,.3411-.7656,.922-1.815,.8228-1.8838-2.5343-1.7563-.466-3.4332-.0406-5.1708,.3162-1.2915,.7468-2.0475,2.2648-2.0634,.4553-.0047,.8998-1.0295,1.6129-1.9141q-3.1065-.2436-5.412-5.4262c.5299-.5892,1.0802-1.2012,1.8703-2.0798Zm-27.8063-5.6686c-.5305,1.1069-1.0903,1.9649-1.3583,2.9059-.4093,1.4376-.754,2.6865-2.7187,2.4952-.3286-.032-.7648,1.0404-1.3357,1.8709,1.6121,.1604,2.506,.2494,3.2344,.3219,.7926,1.8305,1.5095,3.4861,2.2575,5.2138-.588,.6172-1.209,1.2691-1.8669,1.9596,1.7285,2.9416,2.5356-.6368,3.8187-.4496-.0151-.9102,.3074-2.0245-.1-2.6973-2.6324-4.3483-2.4171-8.4922,.7028-11.3017,2.6892-2.4216,7.7978-3.0036,11.3103,.5073,.0861,.0861,.3079,.0366,.49,.0525,.1245-.6138,.2477-1.222,.2864-1.4128,1.1761-.5641,2.0158-.9669,2.8555-1.3696-.3268-.5588-.6535-1.1177-1.0216-1.7472-.9405,.7902-1.6179,1.3594-2.151,1.8074-1.882-.7497-3.5455-1.4124-5.1722-2.0603-.0897-.8851-.172-1.6971-.2517-2.4825-1.4437-.5406-2.0903-.2395-2.1937,1.325-.0387,.5867-.7045,1.3232-1.2786,1.6438-1.214,.6777-2.5559,1.1265-3.9187,1.7-.6615-.5766-1.3404-1.1684-2.0943-1.8256-.482,.5379-.8949,.9987-1.3274,1.4815,.6743,.7587,1.2195,1.372,1.8329,2.0621Zm9.8956,.863c-3.4296-.5938-5.7048,.3724-6.9081,2.5582-1.2571,2.2838-.9721,4.9485,.7139,6.6739,1.3408,1.3721,2.5022,1.2599,2.7662-.5635,.1806-1.2464-.7006-2.6464-1.2896-4.5751,1.1108-.9638,2.7319-2.3705,4.7175-4.0934Z"></path><path d="M416.0027,189.7652v-29.3838h43.3103v29.3838h-43.3103Zm41.157-26.1931c-.9362,.5612-1.639,.9446-2.3028,1.3866-5.1227,3.4108-10.2703,6.7858-15.3336,10.2829-1.3524,.9341-2.291,1.0079-3.699,.0331-5.2557-3.6386-10.6196-7.1212-15.9515-10.6493-.512-.3388-1.0842-.5868-1.7087-.9197v23.9263h38.9956v-24.0599Zm-2.7913-.9809h-33.4773c5.5512,3.6965,10.5888,7.0749,15.6664,10.3922,.4625,.3022,1.3726,.5069,1.7521,.2604,5.254-3.4119,10.4516-6.9108,16.0589-10.6526Z"></path><path d="M671.1609,209.4554c3.0557,0,5.6355-.1434,8.1835,.0783,.883,.0768,1.8918,.8973,2.4928,1.6556,3.138,3.9588,6.1631,8.0068,9.4129,12.2669,3.0335-3.9397,6.0348-7.5859,8.7323-11.4444,1.4008-2.0037,2.935-2.8678,5.353-2.5993,1.8072,.2007,3.6547,.0396,6.0178,.0396-.6698,.9986-1.1026,1.7213-1.6096,2.3874-4.1799,5.4917-8.335,11.0032-12.5939,16.4332-.9034,1.1519-.8538,1.8698,.018,2.986,4.401,5.6346,8.7165,11.3361,13.0569,17.0179,.2898,.3793,.5381,.7904,1.1331,1.6716-3.2751,0-6.1279,.0976-8.9637-.0771-.6139-.0378-1.2426-.996-1.7365-1.6298-3.1018-3.9805-6.1674-7.9892-9.393-12.181-3.2234,4.1909-6.316,8.0876-9.2522,12.0985-.9976,1.3626-2.0606,1.9643-3.7422,1.8707-2.2192-.1236-4.4505-.0304-7.2478-.0304,3.6172-4.7538,6.9086-9.0848,10.2066-13.4109,1.26-1.6528,2.4527-3.3672,3.8283-4.9186,1.1843-1.3357,1.2545-2.2849,.0587-3.7842-4.5098-5.6541-8.8379-11.4529-13.2285-17.2018-.1874-.2453-.3187-.5334-.7264-1.2281Z"></path><path d="M496.5022,414.46c-4.1887,5.5102-8.1178,10.7567-12.1495,15.9233-.9065,1.1616-2.1709,2.044-3.2706,3.055-.2996-.2019-.5992-.4039-.8988-.6058,4.7297-12.0311,9.4594-24.0623,14.374-36.5636,4.9774,6.5024,9.6857,12.6533,14.5584,19.0191,3.395-6.7433,6.6535-13.1807,9.872-19.6381,.6391-1.2823,1.2711-2.2186,2.9189-.7905-3.1985,12.3957-6.4207,24.8833-9.7583,37.8177-5.3024-6.1737-10.3662-12.0697-15.646-18.2172Z"></path><path d="M502.9846,339.8311c-17.0586-.0767-30.6498-13.835-30.5564-30.9321,.0914-16.7375,13.8601-30.3686,30.677-30.3707,16.9929-.002,30.8386,13.8974,30.7377,30.8571-.1004,16.8732-13.9339,30.5217-30.8583,30.4456Zm28.5747-30.5225c.067-15.6255-12.5351-28.4698-28.0174-28.5561-16.0289-.0893-28.9611,12.6269-28.9403,28.457,.0204,15.547,12.7322,28.3751,28.2111,28.4694,15.8728,.0966,28.6787-12.5416,28.7466-28.3703Z"></path><path d="M821.3957,172.0515c-.7901,.8786-1.3404,1.4905-1.8703,2.0798q2.3055,5.1826,5.412,5.4262c-.7131,.8845-1.1577,1.9093-1.6129,1.9141-1.518,.0158-1.9486,.7719-2.2648,2.0634-.4254,1.7376-2.4938,3.4145,.0406,5.1708,.0993,.0688-.4817,1.1182-.8228,1.8838-.9471-.8228-1.6282-1.4145-2.397-2.0822-.8039,.4047-1.5866,.8598-2.4167,1.1994-.8279,.3387-1.7033,.5615-2.6512,.865-.0701,.9071-.1397,1.8061-.2696,3.4875-.8964-.5933-2.0446-1.0487-2.0099-1.3805,.2011-1.9234-.9202-2.3693-2.4151-2.7508-.9445-.241-1.8077-.8-2.868-1.2907-.6376,.5146-1.3286,1.0723-2.0196,1.6304-1.652-.9851-1.5509-.9224-.6894-2.3089,.3742-.6023,.3928-1.5453,.285-2.292-.1023-.708-.736-1.3345-.8607-2.0452-.2405-1.3689-.8142-2.0578-2.3107-1.9243-.4005,.0357-1.0259-.4136-1.2218-.8039-.1418-.2823,.3077-1.2238,.4052-1.2108,3.3854,.4522,2.8986-2.7089,4.0612-4.3027,.1912-.2621,.3156-.5729,.4327-.7904,.1046-1.3164-3.2092-2.2049-.2703-3.7567,.6609,.5754,1.3397,1.1664,2.2546,1.9629,1.2409-2.1502,5.7051-.5282,4.9993-4.9061,1.1802-.4731,2.2285-.7689,2.1918,1.0095-.0284,1.3748,.5274,1.9673,1.8512,2.0766,.4767,.0393,.9422,.3138,1.3955,.5193q2.1548,.9766,4.1157-.6792c.4534,.3672,.9358,.7579,1.5259,1.2358Zm-1.8567,8.4105c-.055-4.4105-3.8136-8.0468-8.2084-7.9411-4.315,.1038-7.8946,3.7278-7.9162,8.0144-.0221,4.3997,3.6606,8.04,8.1207,8.0271,4.4583-.0129,8.0592-3.6572,8.0039-8.1004Z" style="fill: #fff;"></path><path d="M793.5895,166.3829c-.6134-.69-1.1586-1.3034-1.8329-2.0621,.4326-.4828,.8455-.9436,1.3274-1.4815,.7538,.6571,1.4328,1.2489,2.0943,1.8256,1.3628-.5736,2.7046-1.0223,3.9187-1.7,.5741-.3205,1.2398-1.0571,1.2786-1.6438,.1034-1.5645,.7499-1.8656,2.1937-1.325,.0796,.7853,.162,1.5974,.2517,2.4825,1.6267,.648,3.2902,1.3106,5.1722,2.0603,.5331-.4479,1.2105-1.0171,2.151-1.8074,.3681,.6295,.6948,1.1884,1.0216,1.7472-.8397,.4028-1.6794,.8055-2.8555,1.3696-.0387,.1909-.162,.799-.2864,1.4128-.1822-.0158-.4039,.0336-.49-.0525-3.5125-3.511-8.621-2.929-11.3103-.5073-3.1199,2.8095-3.3352,6.9534-.7028,11.3017,.4074,.6729,.0849,1.7872,.1,2.6973-1.2831-.1872-2.0902,3.3912-3.8187,.4496,.6579-.6906,1.2789-1.3425,1.8669-1.9596-.748-1.7277-1.4649-3.3832-2.2575-5.2138-.7284-.0725-1.6223-.1614-3.2344-.3219,.571-.8304,1.0071-1.9029,1.3357-1.8709,1.9647,.1913,2.3093-1.0576,2.7187-2.4952,.268-.941,.8277-1.799,1.3583-2.9059Z" style="fill: #fff;"></path><path d="M803.4851,167.2459c-1.9856,1.7229-3.6067,3.1296-4.7175,4.0934,.5889,1.9287,1.4702,3.3287,1.2896,4.5751-.2641,1.8235-1.4254,1.9356-2.7662,.5635-1.686-1.7253-1.971-4.39-.7139-6.6739,1.2032-2.1858,3.4785-3.1519,6.9081-2.5582Z" style="fill: #fff;"></path><path d="M457.1596,163.5721v24.0599h-38.9956v-23.9263c.6245,.3329,1.1966,.5809,1.7087,.9197,5.3319,3.5281,10.6959,7.0106,15.9515,10.6493,1.408,.9748,2.3466,.901,3.699-.0331,5.0632-3.4971,10.2109-6.8721,15.3336-10.2829,.6638-.442,1.3667-.8254,2.3028-1.3866Z" style="fill: #fff;"></path><path d="M454.3684,162.5912c-5.6073,3.7418-10.8049,7.2407-16.0589,10.6526-.3795,.2465-1.2896,.0417-1.7521-.2604-5.0775-3.3173-10.1152-6.6957-15.6664-10.3922h33.4773Z" style="fill: #fff;"></path><path d="M531.5593,309.3086c-.0679,15.8287-12.8738,28.467-28.7466,28.3703-15.4789-.0942-28.1907-12.9224-28.2111-28.4694-.0208-15.8301,12.9114-28.5463,28.9403-28.457,15.4823,.0862,28.0844,12.9306,28.0174,28.5561Zm-52.1934-.1121c-.0037,13.1757,10.6552,23.8278,23.8007,23.7856,13.0474-.0419,23.6866-10.6429,23.7335-23.6485,.0475-13.1587-10.5856-23.8992-23.714-23.9535-13.1165-.0543-23.8165,10.644-23.8202,23.8164Z" style="fill: #fff;"></path><path d="M819.539,180.462c.0553,4.4432-3.5455,8.0876-8.0039,8.1004-4.4601,.0129-8.1428-3.6275-8.1207-8.0271,.0216-4.2866,3.6012-7.9106,7.9162-8.0144,4.3948-.1057,8.1534,3.5306,8.2084,7.9411Zm-2.2516-.0143c-.0506-3.2584-2.6194-5.6701-5.9683-5.6035-3.2156,.064-5.6065,2.4974-5.6123,5.7122-.0059,3.2505,2.5806,5.8093,5.8478,5.7851,3.2526-.024,5.7836-2.6261,5.7328-5.8938Z"></path><path d="M479.3659,309.1966c.0037-13.1723,10.7038-23.8706,23.8202-23.8164,13.1284,.0543,23.7615,10.7948,23.714,23.9535-.0469,13.0056-10.6861,23.6066-23.7335,23.6485-13.1455,.0422-23.8044-10.6099-23.8007-23.7856Zm26.3982-1.4869c3.5194,1.0456,6.819,2.0259,10.3197,3.066-.4645,1.4546-.8551,2.6778-1.2585,3.9407-4.9151-1.4013-9.6162-2.7417-14.3525-4.0921,1.9084-6.3236,3.7712-12.4957,5.7565-19.0742,1.6145,.8477,2.9915,1.5707,4.4477,2.3353,.2154-.4325,.6418-1.2886,1.261-2.5319-2.6364-.6662-4.9776-1.2579-7.6853-1.9421,0,1.788-.0391,3.0191,.0093,4.2469,.0699,1.7739-.701,2.1677-2.4788,1.4942v-5.7976c-2.6827,.7623-5.0137,1.4246-7.4217,2.1088q2.6487,5.4454,.8197,6.1222c-.9308-1.5272-1.8707-3.0693-2.8238-4.6331-2.0719,1.7453-3.9825,3.3546-6.1069,5.1441,2.343,1.4205,3.8934,2.3605,5.5195,3.3463-.4187,.6751-.7561,1.2189-1.1181,1.8025-1.7149-.9486-3.3029-1.827-5.3239-2.945-.6886,2.6788-1.3061,5.0812-1.9376,7.5379q5.8784,.8126,5.7252,2.4664h-5.8468c.7378,2.7469,1.3826,5.1473,2.085,7.7623,2.0595-1.1271,3.6471-1.996,5.5479-3.0362,1.1554,3.8778-3.2369,3.0994-4.0292,5.5851,1.5084,1.6236,3.1672,3.4091,5.0741,5.4616,1.4065-2.2761,2.3528-3.8072,3.3895-5.4848,.5881,.3657,1.4856,.8221,1.4491,.9161-.6707,1.7274-1.4533,3.4113-2.3909,5.5033,2.4793,.652,4.863,1.2788,7.5934,1.9968v-6.3805c3.9897,.9468,1.1056,4.4525,2.9937,6.259,2.1311-.605,4.4751-1.2704,6.8862-1.9548q-2.5753-5.4731-.8403-6.1063c.9397,1.5051,1.8896,3.0267,2.9797,4.7729,2.0349-1.8756,3.8568-3.5548,5.8568-5.3982-2.2254-1.3188-3.7944-2.2486-5.4847-3.2502,.4387-.6154,.8419-1.1809,1.2645-1.7737,1.766,.9743,3.3334,1.8389,5.2979,2.9227,.6825-2.7349,1.2719-5.0963,1.96-7.8539h-6.3717c1.1954-3.6478,4.2387-1.1021,6.2008-2.8264-.5343-2.0587-1.1516-4.4369-1.8443-7.1059-2.0701,1.14-3.6482,2.0091-5.3287,2.9345-.3993-.6466-.7403-1.1987-1.1157-1.8066,1.6588-1.0103,3.266-1.9892,5.1745-3.1516-1.8448-2.0223-3.5216-3.8604-5.4084-5.9287-1.4111,2.3421-2.3399,3.8837-3.2456,5.3871-.7458-.2749-1.2788-.4714-1.9774-.729-1.0687,3.5471-2.1141,7.0168-3.2209,10.69Z"></path><path d="M817.2874,180.4477c.0508,3.2677-2.4802,5.8698-5.7328,5.8938-3.2673,.0241-5.8538-2.5346-5.8478-5.7851,.0059-3.2148,2.3967-5.6482,5.6123-5.7122,3.3489-.0667,5.9177,2.3451,5.9683,5.6035Z" style="fill: #fff;"></path><path d="M505.764,307.7097c1.1067-3.6732,2.1521-7.1429,3.2209-10.69,.6986,.2576,1.2316,.4541,1.9774,.729,.9058-1.5034,1.8346-3.045,3.2456-5.3871,1.8868,2.0683,3.5635,3.9064,5.4084,5.9287-1.9086,1.1624-3.5158,2.1413-5.1745,3.1516,.3755,.6079,.7164,1.16,1.1157,1.8066,1.6804-.9254,3.2586-1.7945,5.3287-2.9345,.6927,2.669,1.3099,5.0472,1.8443,7.1059-1.9621,1.7243-5.0054-.8215-6.2008,2.8264h6.3717c-.6882,2.7575-1.2775,5.1189-1.96,7.8539-1.9645-1.0838-3.5319-1.9484-5.2979-2.9227-.4226,.5928-.8257,1.1583-1.2645,1.7737,1.6903,1.0017,3.2593,1.9315,5.4847,3.2502-2,1.8434-3.8218,3.5226-5.8568,5.3982-1.0901-1.7461-2.0401-3.2677-2.9797-4.7729q-1.7349,.6332,.8403,6.1063c-2.4111,.6845-4.7551,1.3499-6.8862,1.9548-1.8881-1.8065,.996-5.3122-2.9937-6.259v6.3805c-2.7304-.718-5.1141-1.3449-7.5934-1.9968,.9376-2.092,1.7201-3.7759,2.3909-5.5033,.0365-.094-.861-.5504-1.4491-.9161-1.0367,1.6775-1.9829,3.2087-3.3895,5.4848-1.9069-2.0525-3.5657-3.838-5.0741-5.4616,.7923-2.4857,5.1846-1.7072,4.0292-5.5851-1.9008,1.0403-3.4884,1.9091-5.5479,3.0362-.7024-2.615-1.3472-5.0154-2.085-7.7623h5.8468q.1533-1.6538-5.7252-2.4664c.6315-2.4567,1.249-4.8591,1.9376-7.5379,2.021,1.118,3.609,1.9964,5.3239,2.945,.362-.5836,.6993-1.1274,1.1181-1.8025-1.6261-.9858-3.1764-1.9258-5.5195-3.3463,2.1244-1.7895,4.035-3.3988,6.1069-5.1441,.9531,1.5638,1.893,3.1059,2.8238,4.6331q1.829-.6767-.8197-6.1222c2.408-.6842,4.739-1.3466,7.4217-2.1088v5.7976c1.7779,.6735,2.5487,.2797,2.4788-1.4942-.0484-1.2277-.0093-2.4589-.0093-4.2469,2.7077,.6843,5.0489,1.2759,7.6853,1.9421-.6192,1.2433-1.0456,2.0994-1.261,2.5319-1.4562-.7646-2.8332-1.4876-4.4477-2.3353-1.9853,6.5784-3.8481,12.7505-5.7565,19.0742,4.7363,1.3504,9.4374,2.6907,14.3525,4.0921,.4033-1.263,.794-2.4862,1.2585-3.9407-3.5007-1.0401-6.8003-2.0204-10.3197-3.066Z" style="fill: #fff;"></path></g><g><path d="M59.8031,309.1803v-20.3506h13.0322v2.916h-9.7383v5.6562h8.834v2.915h-8.834v5.9473h9.7383v2.916h-13.0322Z" style="fill: #0072ce;"></path><path d="M80.1527,309.1803l-5.1602-15.1611h3.1484l2.3037,6.9102,1.5449,5.3066h.1748l1.5459-5.3066,2.3613-6.9102h3.0322l-5.2188,15.1611h-3.7324Z" style="fill: #0072ce;"></path><path d="M97.5003,309.5299c-1.0889,0-2.0605-.1846-2.915-.5537-.8555-.3691-1.585-.8984-2.1875-1.5889-.6025-.6895-1.0635-1.5254-1.3848-2.5078-.3203-.9805-.4805-2.0742-.4805-3.2793s.1602-2.2988,.4805-3.2803c.3213-.9814,.7822-1.8174,1.3848-2.5078,.6025-.6895,1.332-1.2188,2.1875-1.5889,.8545-.3682,1.8262-.5537,2.915-.5537,1.1084,0,2.085,.1943,2.9307,.583,.8447,.3896,1.5498,.9287,2.1133,1.6182,.5635,.6904,.9863,1.4922,1.2686,2.4053,.2812,.9141,.4229,1.8955,.4229,2.9453v1.1953h-10.4092v.4922c0,1.1592,.3457,2.1094,1.0352,2.8525,.6895,.7441,1.6768,1.1152,2.96,1.1152,.9326,0,1.7197-.2021,2.3613-.6074s1.1855-.9561,1.6328-1.6514l1.8652,1.8418c-.5635,.9355-1.3799,1.6816-2.4482,2.2373-1.0693,.5557-2.3135,.833-3.7324,.833Zm0-13.3818c-.5439,0-1.0449,.0977-1.501,.291-.457,.1953-.8457,.4668-1.167,.8164-.3203,.3506-.5684,.7686-.7432,1.2539-.1748,.4863-.2627,1.0205-.2627,1.6035v.2041h7.0557v-.291c0-1.167-.3018-2.1045-.9033-2.8135-.6025-.71-1.4287-1.0645-2.4785-1.0645Z" style="fill: #0072ce;"></path><path d="M107.763,309.1803v-15.1611h3.1777v2.5078h.1455c.3301-.8164,.8311-1.4961,1.502-2.041,.6699-.5439,1.5889-.8164,2.7549-.8164,1.5547,0,2.7646,.5107,3.6299,1.5312,.8643,1.0195,1.2969,2.4736,1.2969,4.3584v9.6211h-3.1777v-9.2129c0-2.3711-.9521-3.5566-2.8564-3.5566-.4082,0-.8125,.0537-1.21,.1602-.3994,.1064-.7539,.2676-1.0645,.4805-.3115,.2148-.5596,.4863-.7432,.8164-.1855,.3311-.2773,.7197-.2773,1.166v10.1465h-3.1777Z" style="fill: #0072ce;"></path><path d="M128.8705,309.1803c-1.1084,0-1.9443-.2861-2.5078-.8604-.5635-.5732-.8457-1.3848-.8457-2.4346v-9.2715h-2.3613v-2.5947h1.2832c.5244,0,.8887-.1162,1.0928-.3496s.3066-.6123,.3066-1.1367v-2.6533h2.8574v4.1396h3.1777v2.5947h-3.1777v9.9717h2.9443v2.5947h-2.7695Z" style="fill: #0072ce;"></path></g><g><path d="M227.5599,239.9146l-1.8369-5.5107h-7.6094l-1.7783,5.5107h-3.3525l6.9385-20.3506h4.1406l6.9385,20.3506h-3.4404Zm-5.5684-17.3184h-.1455l-2.9453,8.9795h6.0068l-2.916-8.9795Z" style="fill: #fc5d0d;"></path><path d="M239.7767,240.2642c-1.0889,0-2.0605-.1846-2.916-.5537s-1.5742-.8984-2.1572-1.5889c-.583-.6895-1.0303-1.5254-1.3418-2.5078-.3105-.9805-.4658-2.0742-.4658-3.2793s.1553-2.2988,.4658-3.2803c.3115-.9814,.7588-1.8174,1.3418-2.5078,.583-.6895,1.3018-1.2188,2.1572-1.5889,.8555-.3682,1.8271-.5537,2.916-.5537,1.5156,0,2.7598,.3408,3.7314,1.0205,.9717,.6807,1.6807,1.584,2.1279,2.7119l-2.624,1.2236c-.2139-.6992-.5879-1.2578-1.1221-1.6758-.5352-.418-1.2393-.627-2.1133-.627-1.167,0-2.0459,.3633-2.6387,1.0908-.5938,.7266-.8896,1.6719-.8896,2.834v2.7041c0,1.1631,.2959,2.1084,.8896,2.835,.5928,.7275,1.4717,1.0898,2.6387,1.0898,.9326,0,1.6758-.2275,2.2295-.6846,.5547-.457,.9961-1.0645,1.3271-1.8223l2.4199,1.2832c-.5059,1.249-1.2637,2.207-2.2744,2.875s-2.2451,1.002-3.7021,1.002Z" style="fill: #fc5d0d;"></path><path d="M252.9837,239.9146c-1.1084,0-1.9443-.2861-2.5078-.8604-.5635-.5732-.8457-1.3848-.8457-2.4346v-9.2715h-2.3613v-2.5947h1.2832c.5244,0,.8887-.1162,1.0928-.3496s.3066-.6123,.3066-1.1367v-2.6533h2.8574v4.1396h3.1777v2.5947h-3.1777v9.9717h2.9443v2.5947h-2.7695Z" style="fill: #fc5d0d;"></path><path d="M261.0306,222.0426c-.6611,0-1.1426-.1553-1.4434-.4668-.3018-.3105-.4521-.709-.4521-1.1953v-.4951c0-.4863,.1504-.8848,.4521-1.1953,.3008-.3115,.7822-.4668,1.4434-.4668,.6602,0,1.1367,.1553,1.4287,.4668,.291,.3105,.4365,.709,.4365,1.1953v.4951c0,.4863-.1455,.8848-.4365,1.1953-.292,.3115-.7686,.4668-1.4287,.4668Zm-1.6035,2.7109h3.1777v15.1611h-3.1777v-15.1611Z" style="fill: #fc5d0d;"></path><path d="M270.4476,239.9146l-5.1602-15.1611h3.1484l2.3037,6.9102,1.5449,5.3066h.1748l1.5459-5.3066,2.3613-6.9102h3.0322l-5.2188,15.1611h-3.7324Z" style="fill: #fc5d0d;"></path><path d="M283.6849,222.0426c-.6611,0-1.1426-.1553-1.4434-.4668-.3018-.3105-.4521-.709-.4521-1.1953v-.4951c0-.4863,.1504-.8848,.4521-1.1953,.3008-.3115,.7822-.4668,1.4434-.4668,.6602,0,1.1367,.1553,1.4287,.4668,.291,.3105,.4365,.709,.4365,1.1953v.4951c0,.4863-.1455,.8848-.4365,1.1953-.292,.3115-.7686,.4668-1.4287,.4668Zm-1.6035,2.7109h3.1777v15.1611h-3.1777v-15.1611Z" style="fill: #fc5d0d;"></path><path d="M294.0062,239.9146c-1.1084,0-1.9443-.2861-2.5078-.8604-.5635-.5732-.8457-1.3848-.8457-2.4346v-9.2715h-2.3613v-2.5947h1.2832c.5244,0,.8887-.1162,1.0928-.3496s.3066-.6123,.3066-1.1367v-2.6533h2.8574v4.1396h3.1777v2.5947h-3.1777v9.9717h2.9443v2.5947h-2.7695Z" style="fill: #fc5d0d;"></path><path d="M309.7494,224.7535h3.0615l-6.3848,18.1641c-.1748,.5049-.374,.9375-.5977,1.2979-.2236,.3594-.4863,.6504-.7871,.874-.3018,.2236-.666,.3887-1.0938,.4961-.4277,.1064-.9326,.1602-1.5156,.1602h-1.8369v-2.5947h2.5654l.875-2.5654-5.5107-15.832h3.1777l3.0322,8.9219,.875,3.2949h.1455l.9629-3.2949,3.0312-8.9219Z" style="fill: #fc5d0d;"></path></g><g><path d="M469.5872,239.9146l-1.8369-5.5107h-7.6094l-1.7783,5.5107h-3.3525l6.9385-20.3506h4.1406l6.9385,20.3506h-3.4404Zm-5.5684-17.3184h-.1455l-2.9453,8.9795h6.0068l-2.916-8.9795Z" style="fill: #fc5d0d;"></path><path d="M481.804,240.2642c-1.0889,0-2.0605-.1846-2.916-.5537s-1.5742-.8984-2.1572-1.5889c-.583-.6895-1.0303-1.5254-1.3418-2.5078-.3105-.9805-.4658-2.0742-.4658-3.2793s.1553-2.2988,.4658-3.2803c.3115-.9814,.7588-1.8174,1.3418-2.5078,.583-.6895,1.3018-1.2188,2.1572-1.5889,.8555-.3682,1.8271-.5537,2.916-.5537,1.5156,0,2.7598,.3408,3.7314,1.0205,.9717,.6807,1.6807,1.584,2.1279,2.7119l-2.624,1.2236c-.2139-.6992-.5879-1.2578-1.1221-1.6758-.5352-.418-1.2393-.627-2.1133-.627-1.167,0-2.0459,.3633-2.6387,1.0908-.5938,.7266-.8896,1.6719-.8896,2.834v2.7041c0,1.1631,.2959,2.1084,.8896,2.835,.5928,.7275,1.4717,1.0898,2.6387,1.0898,.9326,0,1.6758-.2275,2.2295-.6846,.5547-.457,.9961-1.0645,1.3271-1.8223l2.4199,1.2832c-.5059,1.249-1.2637,2.207-2.2744,2.875s-2.2451,1.002-3.7021,1.002Z" style="fill: #fc5d0d;"></path><path d="M495.0111,239.9146c-1.1084,0-1.9443-.2861-2.5078-.8604-.5635-.5732-.8457-1.3848-.8457-2.4346v-9.2715h-2.3613v-2.5947h1.2832c.5244,0,.8887-.1162,1.0928-.3496s.3066-.6123,.3066-1.1367v-2.6533h2.8574v4.1396h3.1777v2.5947h-3.1777v9.9717h2.9443v2.5947h-2.7695Z" style="fill: #fc5d0d;"></path><path d="M503.058,222.0426c-.6611,0-1.1426-.1553-1.4434-.4668-.3018-.3105-.4521-.709-.4521-1.1953v-.4951c0-.4863,.1504-.8848,.4521-1.1953,.3008-.3115,.7822-.4668,1.4434-.4668,.6602,0,1.1367,.1553,1.4287,.4668,.291,.3105,.4365,.709,.4365,1.1953v.4951c0,.4863-.1455,.8848-.4365,1.1953-.292,.3115-.7686,.4668-1.4287,.4668Zm-1.6035,2.7109h3.1777v15.1611h-3.1777v-15.1611Z" style="fill: #fc5d0d;"></path><path d="M512.4749,239.9146l-5.1602-15.1611h3.1484l2.3037,6.9102,1.5449,5.3066h.1748l1.5459-5.3066,2.3613-6.9102h3.0322l-5.2188,15.1611h-3.7324Z" style="fill: #fc5d0d;"></path><path d="M525.7122,222.0426c-.6611,0-1.1426-.1553-1.4434-.4668-.3018-.3105-.4521-.709-.4521-1.1953v-.4951c0-.4863,.1504-.8848,.4521-1.1953,.3008-.3115,.7822-.4668,1.4434-.4668,.6602,0,1.1367,.1553,1.4287,.4668,.291,.3105,.4365,.709,.4365,1.1953v.4951c0,.4863-.1455,.8848-.4365,1.1953-.292,.3115-.7686,.4668-1.4287,.4668Zm-1.6035,2.7109h3.1777v15.1611h-3.1777v-15.1611Z" style="fill: #fc5d0d;"></path><path d="M536.0335,239.9146c-1.1084,0-1.9443-.2861-2.5078-.8604-.5635-.5732-.8457-1.3848-.8457-2.4346v-9.2715h-2.3613v-2.5947h1.2832c.5244,0,.8887-.1162,1.0928-.3496s.3066-.6123,.3066-1.1367v-2.6533h2.8574v4.1396h3.1777v2.5947h-3.1777v9.9717h2.9443v2.5947h-2.7695Z" style="fill: #fc5d0d;"></path><path d="M551.7767,224.7535h3.0615l-6.3848,18.1641c-.1748,.5049-.374,.9375-.5977,1.2979-.2236,.3594-.4863,.6504-.7871,.874-.3018,.2236-.666,.3887-1.0938,.4961-.4277,.1064-.9326,.1602-1.5156,.1602h-1.8369v-2.5947h2.5654l.875-2.5654-5.5107-15.832h3.1777l3.0322,8.9219,.875,3.2949h.1455l.9629-3.2949,3.0312-8.9219Z" style="fill: #fc5d0d;"></path></g><g><path d="M649.1136,146.2848h-.1162c-.2139,.9834-.792,1.7988-1.7344,2.4443-.9434,.6465-2.1924,.9688-3.7471,.9688-1.2051,0-2.3223-.2285-3.3525-.6846-1.0303-.457-1.9199-1.127-2.668-2.0117s-1.3311-1.9824-1.749-3.2949c-.418-1.3115-.627-2.8232-.627-4.5332,0-1.6914,.2139-3.1934,.6416-4.5049,.4268-1.3115,1.0303-2.415,1.8076-3.3096,.7773-.8936,1.71-1.5693,2.7988-2.0254,1.0879-.457,2.3027-.6855,3.6445-.6855,1.8262,0,3.3721,.4023,4.6357,1.207,1.2627,.8047,2.2451,1.9248,2.9443,3.3594l-2.6826,1.5693c-.3887-.9561-.9912-1.7314-1.8076-2.3271-.8164-.5947-1.8467-.8936-3.0898-.8936-1.6133,0-2.9111,.5176-3.8926,1.5518s-1.4727,2.498-1.4727,4.3896v3.3369c0,1.8926,.4912,3.3555,1.4727,4.3896s2.2793,1.5518,3.8926,1.5518c.6416,0,1.2539-.083,1.8369-.249s1.0928-.4102,1.5303-.7334c.4375-.3223,.7871-.7227,1.0498-1.2012s.3936-1.041,.3936-1.6855v-1.583h-4.1982v-2.8281h7.376v10.8457h-2.8867v-3.0635Z" style="fill: #00a7b5;"></path><path d="M667.4515,149.3482c-.8359,0-1.4766-.2383-1.9238-.7139-.4473-.4766-.7197-1.084-.8164-1.8223h-.1455c-.292,.9521-.8262,1.6719-1.6035,2.1572-.7783,.4854-1.7207,.7285-2.8281,.7285-1.5742,0-2.7842-.4082-3.6299-1.2246s-1.2686-1.9141-1.2686-3.2939c0-1.5166,.5488-2.6533,1.6475-3.4111,1.0977-.7588,2.7061-1.1377,4.8252-1.1377h2.7402v-1.2822c0-.9336-.2529-1.6523-.7578-2.1582-.5059-.5049-1.293-.7578-2.3613-.7578-.8945,0-1.623,.1943-2.1865,.583-.5645,.3896-1.04,.8848-1.4287,1.4873l-1.8955-1.7207c.5059-.8545,1.2148-1.5596,2.1289-2.1133,.9131-.5537,2.1084-.8311,3.5859-.8311,1.9629,0,3.4697,.457,4.5186,1.3701,1.0498,.9141,1.5752,2.2266,1.5752,3.9365v7.6094h1.6035v2.5947h-1.7793Zm-6.4141-2.0703c.9912,0,1.8076-.2188,2.4492-.6553,.6416-.4375,.9619-1.0254,.9619-1.7646v-2.1865h-2.6816c-2.1973,0-3.2949,.6807-3.2949,2.041v.5244c0,.6807,.2285,1.1914,.6855,1.5312,.4561,.3398,1.083,.5098,1.8799,.5098Z" style="fill: #00a7b5;"></path><path d="M676.4613,149.3482c-1.1084,0-1.9443-.2861-2.5078-.8604-.5635-.5732-.8457-1.3848-.8457-2.4346v-9.2715h-2.3613v-2.5947h1.2832c.5244,0,.8887-.1162,1.0928-.3496s.3066-.6123,.3066-1.1367v-2.6533h2.8574v4.1396h3.1777v2.5947h-3.1777v9.9717h2.9443v2.5947h-2.7695Z" style="fill: #00a7b5;"></path><path d="M688.7347,149.6978c-1.0889,0-2.0605-.1846-2.915-.5537-.8555-.3691-1.585-.8984-2.1875-1.5889-.6025-.6895-1.0635-1.5254-1.3848-2.5078-.3203-.9805-.4805-2.0742-.4805-3.2793s.1602-2.2988,.4805-3.2803c.3213-.9814,.7822-1.8174,1.3848-2.5078,.6025-.6895,1.332-1.2188,2.1875-1.5889,.8545-.3682,1.8262-.5537,2.915-.5537,1.1084,0,2.085,.1943,2.9307,.583,.8447,.3896,1.5498,.9287,2.1133,1.6182,.5635,.6904,.9863,1.4922,1.2686,2.4053,.2812,.9141,.4229,1.8955,.4229,2.9453v1.1953h-10.4092v.4922c0,1.1592,.3457,2.1094,1.0352,2.8525,.6895,.7441,1.6768,1.1152,2.96,1.1152,.9326,0,1.7197-.2021,2.3613-.6074s1.1855-.9561,1.6328-1.6514l1.8652,1.8418c-.5635,.9355-1.3799,1.6816-2.4482,2.2373-1.0693,.5557-2.3135,.833-3.7324,.833Zm0-13.3818c-.5439,0-1.0449,.0977-1.501,.291-.457,.1953-.8457,.4668-1.167,.8164-.3203,.3506-.5684,.7686-.7432,1.2539-.1748,.4863-.2627,1.0205-.2627,1.6035v.2041h7.0557v-.291c0-1.167-.3018-2.1045-.9033-2.8135-.6025-.71-1.4287-1.0645-2.4785-1.0645Z" style="fill: #00a7b5;"></path><path d="M697.3353,134.1871h3.0908l1.5449,6.3564,1.3701,5.7432h.0879l1.5742-5.7432,1.8369-6.3564h2.8574l1.8652,6.3564,1.6045,5.7432h.0869l1.3408-5.7432,1.5752-6.3564h2.9443l-4.082,15.1611h-3.5859l-1.9824-6.9102-1.2246-4.2559h-.0586l-1.1953,4.2559-2.0117,6.9102h-3.498l-4.1406-15.1611Z" style="fill: #00a7b5;"></path><path d="M732.9339,149.3482c-.8359,0-1.4766-.2383-1.9238-.7139-.4473-.4766-.7197-1.084-.8164-1.8223h-.1455c-.292,.9521-.8262,1.6719-1.6035,2.1572-.7783,.4854-1.7207,.7285-2.8281,.7285-1.5742,0-2.7842-.4082-3.6299-1.2246s-1.2686-1.9141-1.2686-3.2939c0-1.5166,.5488-2.6533,1.6475-3.4111,1.0977-.7588,2.7061-1.1377,4.8252-1.1377h2.7402v-1.2822c0-.9336-.2529-1.6523-.7578-2.1582-.5059-.5049-1.293-.7578-2.3613-.7578-.8945,0-1.623,.1943-2.1865,.583-.5645,.3896-1.04,.8848-1.4287,1.4873l-1.8955-1.7207c.5059-.8545,1.2148-1.5596,2.1289-2.1133,.9131-.5537,2.1084-.8311,3.5859-.8311,1.9629,0,3.4697,.457,4.5186,1.3701,1.0498,.9141,1.5752,2.2266,1.5752,3.9365v7.6094h1.6035v2.5947h-1.7793Zm-6.4141-2.0703c.9912,0,1.8076-.2188,2.4492-.6553,.6416-.4375,.9619-1.0254,.9619-1.7646v-2.1865h-2.6816c-2.1973,0-3.2949,.6807-3.2949,2.041v.5244c0,.6807,.2285,1.1914,.6855,1.5312,.4561,.3398,1.083,.5098,1.8799,.5098Z" style="fill: #00a7b5;"></path><path d="M746.929,134.1871h3.0615l-6.3848,18.1641c-.1748,.5049-.374,.9375-.5977,1.2979-.2236,.3594-.4863,.6504-.7871,.874-.3018,.2236-.666,.3887-1.0938,.4961-.4277,.1064-.9326,.1602-1.5156,.1602h-1.8369v-2.5947h2.5654l.875-2.5654-5.5107-15.832h3.1777l3.0322,8.9219,.875,3.2949h.1455l.9629-3.2949,3.0312-8.9219Z" style="fill: #00a7b5;"></path></g><g><path d="M525.0746,47.1793V26.8287h8.7461c1.8848,0,3.3428,.5537,4.373,1.6621,1.0303,1.1074,1.5459,2.5947,1.5459,4.4609,0,1.8652-.5156,3.3525-1.5459,4.4609-1.0303,1.1074-2.4883,1.6611-4.373,1.6611h-5.4521v8.1055h-3.2939Zm3.2939-11.0205h5.248c.8359,0,1.4873-.2168,1.9531-.6504,.4668-.4326,.7002-1.0547,.7002-1.8633v-1.3867c0-.8096-.2334-1.4307-.7002-1.8643-.4658-.4326-1.1172-.6494-1.9531-.6494h-5.248v6.4141Z" style="fill: #888b8d;"></path><path d="M542.8304,47.1793v-15.1611h3.1777v2.916h.1455c.2139-.7773,.6611-1.458,1.3408-2.041,.6807-.583,1.623-.875,2.8281-.875h.8457v3.0615h-1.2539c-1.2637,0-2.2295,.2041-2.9004,.6123s-1.0059,1.0107-1.0059,1.8076v9.6797h-3.1777Z" style="fill: #888b8d;"></path><path d="M559.7982,47.5289c-1.0498,0-2.0068-.1846-2.8721-.5537-.8643-.3691-1.5986-.8984-2.2012-1.5889-.6025-.6895-1.0684-1.5254-1.3994-2.5078-.3301-.9805-.4951-2.0742-.4951-3.2793s.165-2.2988,.4951-3.2803c.3311-.9814,.7969-1.8174,1.3994-2.5078,.6025-.6895,1.3369-1.2188,2.2012-1.5889,.8652-.3682,1.8223-.5537,2.8721-.5537s2.0068,.1855,2.8721,.5537c.8643,.3701,1.5986,.8994,2.2012,1.5889,.6025,.6904,1.0684,1.5264,1.3994,2.5078,.3301,.9814,.4951,2.0752,.4951,3.2803s-.165,2.2988-.4951,3.2793c-.3311,.9824-.7969,1.8184-1.3994,2.5078-.6025,.6904-1.3369,1.2197-2.2012,1.5889-.8652,.3691-1.8223,.5537-2.8721,.5537Zm0-2.6533c1.0889,0,1.9629-.333,2.624-1,.6602-.667,.9912-1.667,.9912-3.001v-2.5518c0-1.333-.3311-2.334-.9912-3.001-.6611-.667-1.5352-1-2.624-1s-1.9629,.333-2.624,1-.9912,1.668-.9912,3.001v2.5518c0,1.334,.3301,2.334,.9912,3.001s1.5352,1,2.624,1Z" style="fill: #888b8d;"></path><path d="M576.1546,47.5289c-1.0889,0-2.0605-.1846-2.916-.5537s-1.5742-.8984-2.1572-1.5889c-.583-.6895-1.0303-1.5254-1.3418-2.5078-.3105-.9805-.4658-2.0742-.4658-3.2793s.1553-2.2988,.4658-3.2803c.3115-.9814,.7588-1.8174,1.3418-2.5078,.583-.6895,1.3018-1.2188,2.1572-1.5889,.8555-.3682,1.8271-.5537,2.916-.5537,1.5156,0,2.7598,.3408,3.7314,1.0205,.9717,.6807,1.6807,1.584,2.1279,2.7119l-2.624,1.2236c-.2139-.6992-.5879-1.2578-1.1221-1.6758-.5352-.418-1.2393-.627-2.1133-.627-1.167,0-2.0459,.3633-2.6387,1.0908-.5938,.7266-.8896,1.6719-.8896,2.834v2.7041c0,1.1631,.2959,2.1084,.8896,2.835,.5928,.7275,1.4717,1.0898,2.6387,1.0898,.9326,0,1.6758-.2275,2.2295-.6846,.5547-.457,.9961-1.0645,1.3271-1.8223l2.4199,1.2832c-.5059,1.249-1.2637,2.207-2.2744,2.875s-2.2451,1.002-3.7021,1.002Z" style="fill: #888b8d;"></path><path d="M590.9359,47.5289c-1.0889,0-2.0605-.1846-2.915-.5537-.8555-.3691-1.585-.8984-2.1875-1.5889-.6025-.6895-1.0635-1.5254-1.3848-2.5078-.3203-.9805-.4805-2.0742-.4805-3.2793s.1602-2.2988,.4805-3.2803c.3213-.9814,.7822-1.8174,1.3848-2.5078,.6025-.6895,1.332-1.2188,2.1875-1.5889,.8545-.3682,1.8262-.5537,2.915-.5537,1.1084,0,2.085,.1943,2.9307,.583,.8447,.3896,1.5498,.9287,2.1133,1.6182,.5635,.6904,.9863,1.4922,1.2686,2.4053,.2812,.9141,.4229,1.8955,.4229,2.9453v1.1953h-10.4092v.4922c0,1.1592,.3457,2.1094,1.0352,2.8525,.6895,.7441,1.6768,1.1152,2.96,1.1152,.9326,0,1.7197-.2021,2.3613-.6074s1.1855-.9561,1.6328-1.6514l1.8652,1.8418c-.5635,.9355-1.3799,1.6816-2.4482,2.2373-1.0693,.5557-2.3135,.833-3.7324,.833Zm0-13.3818c-.5439,0-1.0449,.0977-1.501,.291-.457,.1953-.8457,.4668-1.167,.8164-.3203,.3506-.5684,.7686-.7432,1.2539-.1748,.4863-.2627,1.0205-.2627,1.6035v.2041h7.0557v-.291c0-1.167-.3018-2.1045-.9033-2.8135-.6025-.71-1.4287-1.0645-2.4785-1.0645Z" style="fill: #888b8d;"></path><path d="M606.0091,47.5289c-1.4385,0-2.6436-.2529-3.6152-.7578-.9727-.5049-1.8184-1.2051-2.5371-2.0996l2.041-1.8652c.5635,.6807,1.1904,1.21,1.8809,1.5889,.6895,.3789,1.4912,.5684,2.4053,.5684,.9326,0,1.6279-.1797,2.085-.5391,.4561-.3594,.6846-.8604,.6846-1.502,0-.4854-.1602-.8984-.4805-1.2393-.3213-.3398-.8799-.5586-1.6768-.6553l-1.3994-.1758c-1.5557-.1934-2.7754-.6455-3.6592-1.3555-.8848-.709-1.3262-1.7637-1.3262-3.1631,0-.7383,.1357-1.3945,.4082-1.9678,.2715-.5732,.6553-1.0596,1.1514-1.458,.4951-.3984,1.0879-.7041,1.7783-.918,.6895-.2139,1.4531-.3213,2.2891-.3213,1.3604,0,2.4727,.2139,3.3379,.6416,.8643,.4277,1.6377,1.0205,2.3174,1.7783l-1.9531,1.8662c-.3887-.4668-.8994-.8701-1.5303-1.21-.6318-.3398-1.3555-.5107-2.1719-.5107-.875,0-1.5215,.1758-1.9395,.5254s-.627,.8066-.627,1.3701c0,.583,.1846,1.0205,.5547,1.3115,.3682,.292,.9619,.5059,1.7783,.6416l1.3994,.1748c1.6709,.2529,2.8906,.7441,3.6592,1.4727,.7676,.7285,1.1514,1.7061,1.1514,2.9297,0,.7393-.1416,1.4053-.4229,1.998-.2822,.5928-.6855,1.1025-1.21,1.5303s-1.1562,.7578-1.8955,.9912c-.7383,.2334-1.5645,.3496-2.4775,.3496Z" style="fill: #888b8d;"></path><path d="M620.2367,47.5289c-1.4385,0-2.6436-.2529-3.6152-.7578-.9727-.5049-1.8184-1.2051-2.5371-2.0996l2.041-1.8652c.5635,.6807,1.1904,1.21,1.8809,1.5889,.6895,.3789,1.4912,.5684,2.4053,.5684,.9326,0,1.6279-.1797,2.085-.5391,.4561-.3594,.6846-.8604,.6846-1.502,0-.4854-.1602-.8984-.4805-1.2393-.3213-.3398-.8799-.5586-1.6768-.6553l-1.3994-.1758c-1.5557-.1934-2.7754-.6455-3.6592-1.3555-.8848-.709-1.3262-1.7637-1.3262-3.1631,0-.7383,.1357-1.3945,.4082-1.9678,.2715-.5732,.6553-1.0596,1.1514-1.458,.4951-.3984,1.0879-.7041,1.7783-.918,.6895-.2139,1.4531-.3213,2.2891-.3213,1.3604,0,2.4727,.2139,3.3379,.6416,.8643,.4277,1.6377,1.0205,2.3174,1.7783l-1.9531,1.8662c-.3887-.4668-.8994-.8701-1.5303-1.21-.6318-.3398-1.3555-.5107-2.1719-.5107-.875,0-1.5215,.1758-1.9395,.5254s-.627,.8066-.627,1.3701c0,.583,.1846,1.0205,.5547,1.3115,.3682,.292,.9619,.5059,1.7783,.6416l1.3994,.1748c1.6709,.2529,2.8906,.7441,3.6592,1.4727,.7676,.7285,1.1514,1.7061,1.1514,2.9297,0,.7393-.1416,1.4053-.4229,1.998-.2822,.5928-.6855,1.1025-1.21,1.5303s-1.1562,.7578-1.8955,.9912c-.7383,.2334-1.5645,.3496-2.4775,.3496Z" style="fill: #888b8d;"></path></g><g><path d="M742.8939,391.2496v-20.3506h12.7109v2.916h-9.417v5.6562h8.3682v2.915h-8.3682v8.8633h-3.2939Z" style="fill: #888b8d;"></path><path d="M762.515,391.2496c-1.0889,0-1.9004-.2773-2.4346-.8311-.5352-.5537-.8018-1.3262-.8018-2.3174v-18.4268h3.1777v18.9805h2.0986v2.5947h-2.04Z" style="fill: #888b8d;"></path><path d="M773.5345,391.5992c-1.0498,0-2.0068-.1846-2.8721-.5537-.8643-.3691-1.5986-.8984-2.2012-1.5889-.6025-.6895-1.0684-1.5254-1.3994-2.5078-.3301-.9805-.4951-2.0742-.4951-3.2793s.165-2.2988,.4951-3.2803c.3311-.9814,.7969-1.8174,1.3994-2.5078,.6025-.6895,1.3369-1.2188,2.2012-1.5889,.8652-.3682,1.8223-.5537,2.8721-.5537s2.0068,.1855,2.8721,.5537c.8643,.3701,1.5986,.8994,2.2012,1.5889,.6025,.6904,1.0684,1.5264,1.3994,2.5078,.3301,.9814,.4951,2.0752,.4951,3.2803s-.165,2.2988-.4951,3.2793c-.3311,.9824-.7969,1.8184-1.3994,2.5078-.6025,.6904-1.3369,1.2197-2.2012,1.5889-.8652,.3691-1.8223,.5537-2.8721,.5537Zm0-2.6533c1.0889,0,1.9629-.333,2.624-1,.6602-.667,.9912-1.667,.9912-3.001v-2.5518c0-1.333-.3311-2.334-.9912-3.001-.6611-.667-1.5352-1-2.624-1s-1.9629,.333-2.624,1-.9912,1.668-.9912,3.001v2.5518c0,1.334,.3301,2.334,.9912,3.001s1.5352,1,2.624,1Z" style="fill: #888b8d;"></path><path d="M782.3099,376.0885h3.0908l1.5449,6.3564,1.3701,5.7432h.0879l1.5742-5.7432,1.8369-6.3564h2.8574l1.8652,6.3564,1.6045,5.7432h.0869l1.3408-5.7432,1.5752-6.3564h2.9443l-4.082,15.1611h-3.5859l-1.9824-6.9102-1.2246-4.2559h-.0586l-1.1953,4.2559-2.0117,6.9102h-3.498l-4.1406-15.1611Z" style="fill: #888b8d;"></path></g><g><path d="M844.8011,239.9146l-1.8369-5.5107h-7.6094l-1.7783,5.5107h-3.3525l6.9385-20.3506h4.1406l6.9385,20.3506h-3.4404Zm-5.5684-17.3184h-.1455l-2.9453,8.9795h6.0068l-2.916-8.9795Z" style="fill: #fc5d0d;"></path><path d="M857.0179,240.2642c-1.0889,0-2.0605-.1846-2.916-.5537s-1.5742-.8984-2.1572-1.5889c-.583-.6895-1.0303-1.5254-1.3418-2.5078-.3105-.9805-.4658-2.0742-.4658-3.2793s.1553-2.2988,.4658-3.2803c.3115-.9814,.7588-1.8174,1.3418-2.5078,.583-.6895,1.3018-1.2188,2.1572-1.5889,.8555-.3682,1.8271-.5537,2.916-.5537,1.5156,0,2.7598,.3408,3.7314,1.0205,.9717,.6807,1.6807,1.584,2.1279,2.7119l-2.624,1.2236c-.2139-.6992-.5879-1.2578-1.1221-1.6758-.5352-.418-1.2393-.627-2.1133-.627-1.167,0-2.0459,.3633-2.6387,1.0908-.5938,.7266-.8896,1.6719-.8896,2.834v2.7041c0,1.1631,.2959,2.1084,.8896,2.835,.5928,.7275,1.4717,1.0898,2.6387,1.0898,.9326,0,1.6758-.2275,2.2295-.6846,.5547-.457,.9961-1.0645,1.3271-1.8223l2.4199,1.2832c-.5059,1.249-1.2637,2.207-2.2744,2.875s-2.2451,1.002-3.7021,1.002Z" style="fill: #fc5d0d;"></path><path d="M870.2249,239.9146c-1.1084,0-1.9443-.2861-2.5078-.8604-.5635-.5732-.8457-1.3848-.8457-2.4346v-9.2715h-2.3613v-2.5947h1.2832c.5244,0,.8887-.1162,1.0928-.3496s.3066-.6123,.3066-1.1367v-2.6533h2.8574v4.1396h3.1777v2.5947h-3.1777v9.9717h2.9443v2.5947h-2.7695Z" style="fill: #fc5d0d;"></path><path d="M878.2718,222.0426c-.6611,0-1.1426-.1553-1.4434-.4668-.3018-.3105-.4521-.709-.4521-1.1953v-.4951c0-.4863,.1504-.8848,.4521-1.1953,.3008-.3115,.7822-.4668,1.4434-.4668,.6602,0,1.1367,.1553,1.4287,.4668,.291,.3105,.4365,.709,.4365,1.1953v.4951c0,.4863-.1455,.8848-.4365,1.1953-.292,.3115-.7686,.4668-1.4287,.4668Zm-1.6035,2.7109h3.1777v15.1611h-3.1777v-15.1611Z" style="fill: #fc5d0d;"></path><path d="M887.6888,239.9146l-5.1602-15.1611h3.1484l2.3037,6.9102,1.5449,5.3066h.1748l1.5459-5.3066,2.3613-6.9102h3.0322l-5.2188,15.1611h-3.7324Z" style="fill: #fc5d0d;"></path><path d="M900.9261,222.0426c-.6611,0-1.1426-.1553-1.4434-.4668-.3018-.3105-.4521-.709-.4521-1.1953v-.4951c0-.4863,.1504-.8848,.4521-1.1953,.3008-.3115,.7822-.4668,1.4434-.4668,.6602,0,1.1367,.1553,1.4287,.4668,.291,.3105,.4365,.709,.4365,1.1953v.4951c0,.4863-.1455,.8848-.4365,1.1953-.292,.3115-.7686,.4668-1.4287,.4668Zm-1.6035,2.7109h3.1777v15.1611h-3.1777v-15.1611Z" style="fill: #fc5d0d;"></path><path d="M911.2474,239.9146c-1.1084,0-1.9443-.2861-2.5078-.8604-.5635-.5732-.8457-1.3848-.8457-2.4346v-9.2715h-2.3613v-2.5947h1.2832c.5244,0,.8887-.1162,1.0928-.3496s.3066-.6123,.3066-1.1367v-2.6533h2.8574v4.1396h3.1777v2.5947h-3.1777v9.9717h2.9443v2.5947h-2.7695Z" style="fill: #fc5d0d;"></path><path d="M926.9906,224.7535h3.0615l-6.3848,18.1641c-.1748,.5049-.374,.9375-.5977,1.2979-.2236,.3594-.4863,.6504-.7871,.874-.3018,.2236-.666,.3887-1.0938,.4961-.4277,.1064-.9326,.1602-1.5156,.1602h-1.8369v-2.5947h2.5654l.875-2.5654-5.5107-15.832h3.1777l3.0322,8.9219,.875,3.2949h.1455l.9629-3.2949,3.0312-8.9219Z" style="fill: #fc5d0d;"></path></g><g><path d="M467.2464,493.773v-20.3506h13.0322v2.916h-9.7383v5.6562h8.834v2.915h-8.834v5.9473h9.7383v2.916h-13.0322Z" style="fill: #0072ce;"></path><path d="M487.596,493.773l-5.1602-15.1611h3.1484l2.3037,6.9102,1.5449,5.3066h.1748l1.5459-5.3066,2.3613-6.9102h3.0322l-5.2188,15.1611h-3.7324Z" style="fill: #0072ce;"></path><path d="M504.9437,494.1226c-1.0889,0-2.0605-.1846-2.915-.5537-.8555-.3691-1.585-.8984-2.1875-1.5889-.6025-.6895-1.0635-1.5254-1.3848-2.5078-.3203-.9805-.4805-2.0742-.4805-3.2793s.1602-2.2988,.4805-3.2803c.3213-.9814,.7822-1.8174,1.3848-2.5078,.6025-.6895,1.332-1.2188,2.1875-1.5889,.8545-.3682,1.8262-.5537,2.915-.5537,1.1084,0,2.085,.1943,2.9307,.583,.8447,.3896,1.5498,.9287,2.1133,1.6182,.5635,.6904,.9863,1.4922,1.2686,2.4053,.2812,.9141,.4229,1.8955,.4229,2.9453v1.1953h-10.4092v.4922c0,1.1592,.3457,2.1094,1.0352,2.8525,.6895,.7441,1.6768,1.1152,2.96,1.1152,.9326,0,1.7197-.2021,2.3613-.6074s1.1855-.9561,1.6328-1.6514l1.8652,1.8418c-.5635,.9355-1.3799,1.6816-2.4482,2.2373-1.0693,.5557-2.3135,.833-3.7324,.833Zm0-13.3818c-.5439,0-1.0449,.0977-1.501,.291-.457,.1953-.8457,.4668-1.167,.8164-.3203,.3506-.5684,.7686-.7432,1.2539-.1748,.4863-.2627,1.0205-.2627,1.6035v.2041h7.0557v-.291c0-1.167-.3018-2.1045-.9033-2.8135-.6025-.71-1.4287-1.0645-2.4785-1.0645Z" style="fill: #0072ce;"></path><path d="M515.2064,493.773v-15.1611h3.1777v2.5078h.1455c.3301-.8164,.8311-1.4961,1.502-2.041,.6699-.5439,1.5889-.8164,2.7549-.8164,1.5547,0,2.7646,.5107,3.6299,1.5312,.8643,1.0195,1.2969,2.4736,1.2969,4.3584v9.6211h-3.1777v-9.2129c0-2.3711-.9521-3.5566-2.8564-3.5566-.4082,0-.8125,.0537-1.21,.1602-.3994,.1064-.7539,.2676-1.0645,.4805-.3115,.2148-.5596,.4863-.7432,.8164-.1855,.3311-.2773,.7197-.2773,1.166v10.1465h-3.1777Z" style="fill: #0072ce;"></path><path d="M536.3138,493.773c-1.1084,0-1.9443-.2861-2.5078-.8604-.5635-.5732-.8457-1.3848-.8457-2.4346v-9.2715h-2.3613v-2.5947h1.2832c.5244,0,.8887-.1162,1.0928-.3496s.3066-.6123,.3066-1.1367v-2.6533h2.8574v4.1396h3.1777v2.5947h-3.1777v9.9717h2.9443v2.5947h-2.7695Z" style="fill: #0072ce;"></path></g><g><path d="M851.7718,525.8609v-20.3506h13.0322v2.916h-9.7383v5.6562h8.834v2.915h-8.834v5.9473h9.7383v2.916h-13.0322Z" style="fill: #0072ce;"></path><path d="M872.1214,525.8609l-5.1602-15.1611h3.1484l2.3037,6.9102,1.5449,5.3066h.1748l1.5459-5.3066,2.3613-6.9102h3.0322l-5.2188,15.1611h-3.7324Z" style="fill: #0072ce;"></path><path d="M889.4691,526.2105c-1.0889,0-2.0605-.1846-2.915-.5537-.8555-.3691-1.585-.8984-2.1875-1.5889-.6025-.6895-1.0635-1.5254-1.3848-2.5078-.3203-.9805-.4805-2.0742-.4805-3.2793s.1602-2.2988,.4805-3.2803c.3213-.9814,.7822-1.8174,1.3848-2.5078,.6025-.6895,1.332-1.2188,2.1875-1.5889,.8545-.3682,1.8262-.5537,2.915-.5537,1.1084,0,2.085,.1943,2.9307,.583,.8447,.3896,1.5498,.9287,2.1133,1.6182,.5635,.6904,.9863,1.4922,1.2686,2.4053,.2812,.9141,.4229,1.8955,.4229,2.9453v1.1953h-10.4092v.4922c0,1.1592,.3457,2.1094,1.0352,2.8525,.6895,.7441,1.6768,1.1152,2.96,1.1152,.9326,0,1.7197-.2021,2.3613-.6074s1.1855-.9561,1.6328-1.6514l1.8652,1.8418c-.5635,.9355-1.3799,1.6816-2.4482,2.2373-1.0693,.5557-2.3135,.833-3.7324,.833Zm0-13.3818c-.5439,0-1.0449,.0977-1.501,.291-.457,.1953-.8457,.4668-1.167,.8164-.3203,.3506-.5684,.7686-.7432,1.2539-.1748,.4863-.2627,1.0205-.2627,1.6035v.2041h7.0557v-.291c0-1.167-.3018-2.1045-.9033-2.8135-.6025-.71-1.4287-1.0645-2.4785-1.0645Z" style="fill: #0072ce;"></path><path d="M899.7318,525.8609v-15.1611h3.1777v2.5078h.1455c.3301-.8164,.8311-1.4961,1.502-2.041,.6699-.5439,1.5889-.8164,2.7549-.8164,1.5547,0,2.7646,.5107,3.6299,1.5312,.8643,1.0195,1.2969,2.4736,1.2969,4.3584v9.6211h-3.1777v-9.2129c0-2.3711-.9521-3.5566-2.8564-3.5566-.4082,0-.8125,.0537-1.21,.1602-.3994,.1064-.7539,.2676-1.0645,.4805-.3115,.2148-.5596,.4863-.7432,.8164-.1855,.3311-.2773,.7197-.2773,1.166v10.1465h-3.1777Z" style="fill: #0072ce;"></path><path d="M920.8392,525.8609c-1.1084,0-1.9443-.2861-2.5078-.8604-.5635-.5732-.8457-1.3848-.8457-2.4346v-9.2715h-2.3613v-2.5947h1.2832c.5244,0,.8887-.1162,1.0928-.3496s.3066-.6123,.3066-1.1367v-2.6533h2.8574v4.1396h3.1777v2.5947h-3.1777v9.9717h2.9443v2.5947h-2.7695Z" style="fill: #0072ce;"></path></g><g><path d="M1017.013,307.1949v-20.3506h13.0322v2.916h-9.7383v5.6562h8.834v2.915h-8.834v5.9473h9.7383v2.916h-13.0322Z" style="fill: #0072ce;"></path><path d="M1037.3626,307.1949l-5.1602-15.1611h3.1484l2.3037,6.9102,1.5449,5.3066h.1748l1.5459-5.3066,2.3613-6.9102h3.0322l-5.2188,15.1611h-3.7324Z" style="fill: #0072ce;"></path><path d="M1054.7103,307.5445c-1.0889,0-2.0605-.1846-2.915-.5537-.8555-.3691-1.585-.8984-2.1875-1.5889-.6025-.6895-1.0635-1.5254-1.3848-2.5078-.3203-.9805-.4805-2.0742-.4805-3.2793s.1602-2.2988,.4805-3.2803c.3213-.9814,.7822-1.8174,1.3848-2.5078,.6025-.6895,1.332-1.2188,2.1875-1.5889,.8545-.3682,1.8262-.5537,2.915-.5537,1.1084,0,2.085,.1943,2.9307,.583,.8447,.3896,1.5498,.9287,2.1133,1.6182,.5635,.6904,.9863,1.4922,1.2686,2.4053,.2812,.9141,.4229,1.8955,.4229,2.9453v1.1953h-10.4092v.4922c0,1.1592,.3457,2.1094,1.0352,2.8525,.6895,.7441,1.6768,1.1152,2.96,1.1152,.9326,0,1.7197-.2021,2.3613-.6074s1.1855-.9561,1.6328-1.6514l1.8652,1.8418c-.5635,.9355-1.3799,1.6816-2.4482,2.2373-1.0693,.5557-2.3135,.833-3.7324,.833Zm0-13.3818c-.5439,0-1.0449,.0977-1.501,.291-.457,.1953-.8457,.4668-1.167,.8164-.3203,.3506-.5684,.7686-.7432,1.2539-.1748,.4863-.2627,1.0205-.2627,1.6035v.2041h7.0557v-.291c0-1.167-.3018-2.1045-.9033-2.8135-.6025-.71-1.4287-1.0645-2.4785-1.0645Z" style="fill: #0072ce;"></path><path d="M1064.973,307.1949v-15.1611h3.1777v2.5078h.1455c.3301-.8164,.8311-1.4961,1.502-2.041,.6699-.5439,1.5889-.8164,2.7549-.8164,1.5547,0,2.7646,.5107,3.6299,1.5312,.8643,1.0195,1.2969,2.4736,1.2969,4.3584v9.6211h-3.1777v-9.2129c0-2.3711-.9521-3.5566-2.8564-3.5566-.4082,0-.8125,.0537-1.21,.1602-.3994,.1064-.7539,.2676-1.0645,.4805-.3115,.2148-.5596,.4863-.7432,.8164-.1855,.3311-.2773,.7197-.2773,1.166v10.1465h-3.1777Z" style="fill: #0072ce;"></path><path d="M1086.0804,307.1949c-1.1084,0-1.9443-.2861-2.5078-.8604-.5635-.5732-.8457-1.3848-.8457-2.4346v-9.2715h-2.3613v-2.5947h1.2832c.5244,0,.8887-.1162,1.0928-.3496s.3066-.6123,.3066-1.1367v-2.6533h2.8574v4.1396h3.1777v2.5947h-3.1777v9.9717h2.9443v2.5947h-2.7695Z" style="fill: #0072ce;"></path></g><path d="M58.8734,113.3961l-2.6699-.0498,.0498-4.1104,2.6201,.0498v4.1104Zm1035.04-3.8398l-2.6602-.0498,.0498-4.1006,2.6104,.0498v4.1006ZM58.8734,105.2857l-2.6699-.0498,.0498-4.0996,2.6201,.0498v4.0996Zm1035.04-3.8301l-2.6602-.0498,.0498-4.1094,2.6104,.0498v4.1094ZM58.8734,97.1861l-2.6699-.0498,.0498-4.1104,2.6201,.0498v4.1104Zm1035.04-3.8398l-2.6602-.0498,.0498-4.1006,2.6104,.0498v4.1006ZM58.8734,89.0758l-2.6699-.0498,.0498-4.0996,2.6201,.0498v4.0996Zm1035.04-3.8301l-2.6602-.0498,.0498-4.1104,2.6104,.0508v4.1094ZM58.8734,80.9664l-2.6699-.0508v-3.1592c0-.3203,.0098-.6504,.04-1v-.0508l2.6699,.2305-.0107,.0498c-.0195,.25-.0293,.5098-.0293,.7705v3.21Zm1032.3594-3.75v-.0508c-.0801-1.1797-.3799-2.3301-.8896-3.3896l-.0195-.0498,2.4092-1.1602,.0205,.0498c.6602,1.3799,1.0498,2.8506,1.1396,4.3906l.0098,.0498-2.6699,.1602ZM59.8431,73.6461l-2.3896-1.21,.0293-.04c.6904-1.3701,1.6299-2.5703,2.7803-3.5801l.04-.0303,1.7598,2-.04,.04c-.8896,.7803-1.6201,1.71-2.1602,2.7803l-.0195,.04Zm1028.4297-2.6602l-.0293-.0303c-.8906-.8096-1.9004-1.4297-3.0107-1.8301l-.04-.0195,1-2.4902v.0098c1.4307,.5303,2.7207,1.3203,3.8408,2.3506l.04,.04-1.8008,1.9697Zm-1023.2598-1.9102l-.8701-2.5293,.0498-.0107c1.25-.4395,2.5605-.6602,3.8906-.6602l.5801,.0605-.0508,2.6104h-.5293c-1.0303,0-2.0498,.1797-3.0205,.5098l-.0498,.0195Zm1016.7598-.5293l-4.1494-.0508,.0498-2.6201,4.0996,.0508v2.6201Zm-8.0996,0l-4.1602-.0508,.0498-2.6201,4.1104,.0508v2.6201Zm-8.1104,0l-4.1494-.0508,.0498-2.6201,4.0996,.0508v2.6201Zm-8.0996,0l-4.1602-.0508,.0498-2.6201,4.1104,.0508v2.6201Zm-8.1104,0l-4.1494-.0508,.0498-2.6201,4.0996,.0508v2.6201Zm-8.0996,0l-4.1504-.0508,.0498-2.6201,4.1006,.0508v2.6201Zm-8.1104,0l-4.1494-.0508,.0498-2.6201,4.0996,.0508v2.6201Zm-8.0996,0l-4.1504-.0508,.0498-2.6201,4.1006,.0508v2.6201Zm-8.1104,0l-4.1494-.0508,.0498-2.6201,4.0996,.0508v2.6201Zm-8.0996,0l-4.1504-.0508,.0498-2.6201,4.1006,.0508v2.6201Zm-8.1104,0l-4.1494-.0508,.0498-2.6201,4.0996,.0508v2.6201Zm-8.0996,0l-4.1602-.0508,.0498-2.6201,4.1104,.0508v2.6201Zm-8.1104,0l-4.1504-.0508,.0508-2.6201,4.0996,.0508v2.6201Zm-8.0996,0l-4.1504-.0508,.0498-2.6201,4.1006,.0508v2.6201Zm-8.1006,0l-4.1602-.0508,.0508-2.6201,4.1094,.0508v2.6201Zm-8.1094,0l-4.1504-.0508,.0498-2.6201,4.1006,.0508v2.6201Zm-8.1104,0l-4.1504-.0508,.0508-2.6201,4.0996,.0508v2.6201Zm-8.0996,0l-4.1504-.0508,.0498-2.6201,4.1006,.0508v2.6201Zm-8.1104,0l-4.1504-.0508,.0508-2.6201,4.0996,.0508v2.6201Zm-8.0996,0l-4.1504-.0508,.0498-2.6201,4.1006,.0508v2.6201Zm-8.1104,0l-4.1504-.0508,.0508-2.6201,4.0996,.0508v2.6201Zm-8.0996,0l-4.1504-.0508,.0498-2.6201,4.1006,.0508v2.6201Zm-8.1006,0l-4.1602-.0508,.0498-2.6201,4.1104,.0508v2.6201Zm-8.1104,0l-4.1494-.0508,.0498-2.6201,4.0996,.0508v2.6201Zm-8.1094,0l-4.1504-.0508,.0498-2.6201,4.1006,.0508v2.6201Zm-8.1006,0l-4.1494-.0508,.0498-2.6201,4.0996,.0508v2.6201Zm-8.1094,0l-4.1406-.0508,.0508-2.6201,4.0898,.0508v2.6201Zm-8.1006,0l-4.1494-.0508,.0498-2.6201,4.0996,.0508v2.6201Zm-8.0996,0l-4.1602-.0508,.0498-2.6201,4.1104,.0508v2.6201Zm-8.1104,0l-4.1494-.0508,.0498-2.6201,4.0996,.0508v2.6201Zm-8.0996,0l-4.1602-.0508,.0498-2.6201,4.1104,.0508v2.6201Zm-8.1104,0l-4.1494-.0508,.0498-2.6201,4.0996,.0508v2.6201Zm-8.0996,0l-4.1602-.0508,.0498-2.6201,4.1104,.0508v2.6201Zm-8.1104,0l-4.1494-.0508,.0498-2.6201,4.0996,.0508v2.6201Zm-8.1094,0l-4.1406-.0508,.0498-2.6201,4.0908,.0508v2.6201Zm-8.1006,0l-4.1494-.0508,.0498-2.6201,4.0996,.0508v2.6201Zm-8.0996,0l-4.1504-.0508,.0498-2.6201,4.1006,.0508v2.6201Zm-8.1104,0l-4.1494-.0508,.0498-2.6201,4.0996,.0508v2.6201Zm-8.0996,0l-4.1602-.0508,.0498-2.6201,4.1104,.0508v2.6201Zm-8.1104,0l-4.1494-.0508,.0498-2.6201,4.0996,.0508v2.6201Zm-8.0996,0l-4.1504-.0508,.0498-2.6201,4.1006,.0508v2.6201Zm-8.1104,0l-4.1494-.0508,.0498-2.6201,4.0996,.0508v2.6201Zm-8.0996,0l-4.1504-.0508,.0498-2.6201,4.1006,.0508v2.6201Zm-8.1104,0l-4.1504-.0508,.0508-2.6201,4.0996,.0508v2.6201Zm-8.0996,0l-4.1504-.0508,.0498-2.6201,4.1006,.0508v2.6201Zm-8.1104,0l-4.1504-.0508,.0508-2.6201,4.0996,.0508v2.6201Zm-8.0996,0l-4.1602-.0508,.0498-2.6201,4.1104,.0508v2.6201Zm-8.1104,0l-4.1504-.0508,.0508-2.6201,4.0996,.0508v2.6201Zm-8.0996,0l-4.1504-.0508,.0498-2.6201,4.1006,.0508v2.6201Zm-8.1006,0l-4.1602-.0508,.0508-2.6201,4.1094,.0508v2.6201Zm-8.1094,0l-4.1504-.0508,.0498-2.6201,4.1006,.0508v2.6201Zm-8.1104,0l-4.1504-.0508,.0508-2.6201,4.0996,.0508v2.6201Zm-8.0996,0l-4.1504-.0508,.0498-2.6201,4.1006,.0508v2.6201Zm-8.1104,0l-4.1504-.0508,.0498-2.6201,4.1006,.0508v2.6201Zm-8.1006,0l-4.1494-.0508,.0498-2.6201,4.0996,.0508v2.6201Zm-8.1094,0l-4.1504-.0508,.0498-2.6201,4.1006,.0508v2.6201Zm-8.1006,0l-4.1494-.0508,.0498-2.6201,4.0996,.0508v2.6201Zm-8.0996,0l-4.1602-.0508,.0498-2.6201,4.1104,.0508v2.6201Zm-8.1104,0l-4.1494-.0508,.0498-2.6201,4.0996,.0508v2.6201Zm-8.0996,0l-4.1602-.0508,.0498-2.6201,4.1104,.0508v2.6201Zm-8.1104,0l-4.1494-.0508,.0498-2.6201,4.0996,.0508v2.6201Zm-8.1094,0l-4.1504-.0508,.0498-2.6201,4.1006,.0508v2.6201Zm-8.1006,0l-4.1494-.0508,.0498-2.6201,4.0996,.0508v2.6201Zm-8.0996,0l-4.1602-.0508,.0498-2.6201,4.1104,.0508v2.6201Zm-8.1104,0l-4.1494-.0508,.0498-2.6201,4.0996,.0508v2.6201Zm-8.0996,0l-4.1602-.0508,.0498-2.6201,4.1104,.0508v2.6201Zm-8.1104,0l-4.1494-.0508,.0498-2.6201,4.0996,.0508v2.6201Zm-8.0996,0l-4.1602-.0508,.0498-2.6201,4.1104,.0508v2.6201Zm-8.1104,0l-4.1494-.0508,.0498-2.6201,4.0996,.0508v2.6201Zm-8.1094,0l-4.1406-.0508,.0498-2.6201,4.0908,.0508v2.6201Zm-8.1006,0l-4.1494-.0508,.0498-2.6201,4.0996,.0508v2.6201Zm-8.0996,0l-4.1602-.0508,.0498-2.6201,4.1104,.0508v2.6201Zm-8.1104,0l-4.1494-.0508,.0498-2.6201,4.0996,.0508v2.6201Zm-8.0996,0l-4.1602-.0508,.0498-2.6201,4.1104,.0508v2.6201Zm-8.1104,0l-4.1504-.0508,.0508-2.6201,4.0996,.0508v2.6201Zm-8.0996,0l-4.1602-.0508,.0498-2.6201,4.1104,.0508v2.6201Zm-8.1104,0l-4.1504-.0508,.0508-2.6201,4.0996,.0508v2.6201Zm-8.0996,0l-4.1504-.0508,.0498-2.6201,4.1006,.0508v2.6201Zm-8.1104,0l-4.1504-.0508,.0508-2.6201,4.0996,.0508v2.6201Zm-8.0996,0l-4.1602-.0508,.0498-2.6201,4.1104,.0508v2.6201Zm-8.1104,0l-4.1504-.0508,.0508-2.6201,4.0996,.0508v2.6201Zm-8.0996,0l-4.1602-.0508,.0498-2.6201,4.1104,.0508v2.6201Zm-8.1104,0l-4.1504-.0508,.0508-2.6201,4.0996,.0508v2.6201Zm-8.0996,0l-4.1504-.0508,.0498-2.6201,4.1006,.0508v2.6201Zm-8.1104,0l-4.1504-.0508,.0498-2.6201,4.1006,.0508v2.6201Zm-8.1006,0l-4.1494-.0508,.0498-2.6201,4.0996,.0508v2.6201Zm-8.1094,0l-4.1504-.0508,.0498-2.6201,4.1006,.0508v2.6201Zm-8.1006,0l-4.1592-.0508,.0498-2.6201,4.1094,.0508v2.6201Zm-8.1094,0l-4.1504-.0508,.0498-2.6201,4.1006,.0508v2.6201Zm-8.1006,0l-4.1592-.0508,.0498-2.6201,4.1094,.0508v2.6201Zm-8.1094,0l-4.1504-.0508,.0498-2.6201,4.1006,.0508v2.6201Zm-8.1006,0l-4.1494-.0508,.0498-2.6201,4.0996,.0508v2.6201Zm-8.1094,0l-4.1504-.0508,.0498-2.6201,4.1006,.0508v2.6201Zm-8.1006,0l-4.1494-.0508,.0498-2.6201,4.0996,.0508v2.6201Zm-8.1094,0l-4.1504-.0508,.0498-2.6201,4.1006,.0508v2.6201Zm-8.1006,0l-4.1494-.0508,.0498-2.6201,4.0996,.0508v2.6201Zm-8.1094,0l-4.1504-.0508,.0498-2.6201,4.1006,.0508v2.6201Zm-8.1006,0l-4.1494-.0508,.0498-2.6201,4.0996,.0508v2.6201Zm-8.1094,0l-4.1504-.0508,.0498-2.6201,4.1006,.0508v2.6201Zm-8.1006,0l-4.1494-.0508,.0498-2.6201,4.0996,.0508v2.6201Zm-8.1094,0l-4.1504-.0508,.0498-2.6201,4.1006,.0508v2.6201Zm-8.1006,0l-4.1494-.0508,.0498-2.6201,4.0996,.0508v2.6201Zm-8.1094,0l-4.1504-.0508,.0498-2.6201,4.1006,.0508v2.6201Zm-8.1006,0l-4.1602-.0508,.0498-2.6201,4.1104,.0508v2.6201Zm-8.1104,0l-4.1494-.0508,.0498-2.6201,4.0996,.0508v2.6201Zm-8.0996,0l-4.1504-.0508,.0508-2.6201,4.0996,.0508v2.6201Zm-8.1104,0l-4.1494-.0508,.0498-2.6201,4.0996,.0508v2.6201Zm-8.0996,0l-4.1504-.0508,.0508-2.6201,4.0996,.0508v2.6201Zm-8.1104,0l-4.1494-.0508,.0498-2.6201,4.0996,.0508v2.6201Zm-8.0996,0l-4.1504-.0508,.0508-2.6201,4.0996,.0508v2.6201Zm-8.1104,0l-4.1494-.0508,.0498-2.6201,4.0996,.0508v2.6201Zm-8.0996,0l-4.1504-.0508,.0508-2.6201,4.0996,.0508v2.6201Zm-8.1104,0l-4.1494-.0508,.0498-2.6201,4.0996,.0508v2.6201Zm-8.0996,0l-4.1504-.0508,.0508-2.6201,4.0996,.0508v2.6201Zm-8.1104,0l-4.1494-.0508,.0498-2.6201,4.0996,.0508v2.6201Zm-8.0996,0l-4.1504-.0508,.0498-2.6201,4.1006,.0508v2.6201Zm-8.1104,0l-4.1494-.0508,.0498-2.6201,4.0996,.0508v2.6201Zm-8.0996,0l-4.1504-.0508,.04-2.6201,4.1104,.0508v2.6201Zm-8.1104,0l-4.1494-.0508,.0498-2.6201,4.0996,.0508v2.6201Zm-8.0996,0l-4.1504-.0508,.0498-2.6201,4.1006,.0508v2.6201Zm-8.1006,0l-4.1592-.0508,.0498-2.6201,4.1094,.0508v2.6201Zm-8.1094,0l-4.1504-.0508,.0498-2.6201,4.1006,.0508v2.6201Zm-8.1104,0l-4.1494-.0508,.0498-2.6201,4.0996,.0508v2.6201Zm-8.0996,0l-4.1504-.0508,.0498-2.6201,4.1006,.0508v2.6201Zm-8.1006,0l-4.1602-.0508,.0508-2.6201,4.1094,.0508v2.6201Z" style="fill: #888b8d;"></path><g><polygon points="787.9063 426.4078 771.7411 417.6766 771.7411 425.1256 767.6429 425.0758 767.5931 427.6959 771.7411 427.7457 771.7411 435.1392 787.9063 426.4078" style="fill: #888b8d;"></polygon><polygon points="759.4828 427.6959 763.6331 427.7457 763.6331 425.1256 759.5335 425.0758 759.4828 427.6959" style="fill: #888b8d;"></polygon><polygon points="715.3929 378.2057 712.7728 378.1558 712.723 382.2564 715.3929 382.3062 715.3929 378.2057" style="fill: #888b8d;"></polygon><polygon points="715.3929 386.3062 712.7728 386.2564 712.723 390.356 715.3929 390.4058 715.3929 386.3062" style="fill: #888b8d;"></polygon><polygon points="715.3929 361.9957 712.7728 361.9459 712.723 366.0465 715.3929 366.0963 715.3929 361.9957" style="fill: #888b8d;"></polygon><polygon points="715.3929 394.4156 712.7728 394.3658 712.723 398.4664 715.3929 398.5162 715.3929 394.4156" style="fill: #888b8d;"></polygon><polygon points="715.3929 337.6764 712.7728 337.6256 712.723 341.7359 715.3929 341.7857 715.3929 337.6764" style="fill: #888b8d;"></polygon><polygon points="715.3929 353.8863 712.7728 353.8355 712.723 357.9361 715.3929 357.9859 715.3929 353.8863" style="fill: #888b8d;"></polygon><polygon points="715.3929 345.7857 712.7728 345.7359 712.723 349.8355 715.3929 349.8863 715.3929 345.7857" style="fill: #888b8d;"></polygon><polygon points="715.3929 370.0963 712.7728 370.0465 712.723 374.1558 715.3929 374.2057 715.3929 370.0963" style="fill: #888b8d;"></polygon><polygon points="743.2728 427.6959 747.433 427.7457 747.433 425.1256 743.3236 425.0758 743.2728 427.6959" style="fill: #888b8d;"></polygon><polygon points="735.1732 427.6959 739.3236 427.7457 739.3236 425.1256 735.223 425.0758 735.1732 427.6959" style="fill: #888b8d;"></polygon><polygon points="751.3831 427.6959 755.5335 427.7457 755.5335 425.1256 751.433 425.0758 751.3831 427.6959" style="fill: #888b8d;"></polygon><polygon points="715.3929 402.5162 712.7728 402.4664 712.723 406.5758 715.3929 406.6256 715.3929 402.5162" style="fill: #888b8d;"></polygon><polygon points="727.0628 427.6959 731.2132 427.7457 731.2132 425.1256 727.1126 425.0758 727.0628 427.6959" style="fill: #888b8d;"></polygon><polygon points="715.3929 410.6256 712.7728 410.5758 712.723 414.6764 715.3929 414.7262 715.3929 410.6256" style="fill: #888b8d;"></polygon><path d="M715.7435,418.3756l.0195-.0195-.0703-.0703-1.4092,.4004-1.1309,.3203,.0107,.0498c.4102,1.4697,1.0898,2.8301,2.0293,4.0498l.0303,.04,2.1201-1.6299-.0303-.04c-.7197-.9297-1.25-1.9697-1.5693-3.1006Z" style="fill: #888b8d;"></path><path d="M719.9535,423.8062l-.0508-.0303-1.3291,2.2598-.0107,.04,.0303,.0303c1.3203,.7803,2.7598,1.2803,4.2803,1.5098l.0498,.0098,.3896-2.6494h-.0498c-1.1699-.1797-2.29-.5703-3.3096-1.1699Z" style="fill: #888b8d;"></path></g></svg>